<?xml version="1.0" encoding="UTF-8" standalone="no"?><svg xmlns="http://www.w3.org/2000/svg" xmlns:xlink="http://www.w3.org/1999/xlink" contentScriptType="application/ecmascript" contentStyleType="text/css" height="891px" preserveAspectRatio="none" style="width:1064px;height:891px;" version="1.1" viewBox="0 0 1064 891" width="1064px" zoomAndPan="magnify"><defs><filter height="300%" id="ffltwqqivtuxe" width="300%" x="-1" y="-1"><feGaussianBlur result="blurOut" stdDeviation="2.0"/><feColorMatrix in="blurOut" result="blurOut2" type="matrix" values="0 0 0 0 0 0 0 0 0 0 0 0 0 0 0 0 0 0 .4 0"/><feOffset dx="4.0" dy="4.0" in="blurOut2" result="blurOut3"/><feBlend in="SourceGraphic" in2="blurOut3" mode="normal"/></filter></defs><g><line style="stroke: #A80036; stroke-width: 1.0; stroke-dasharray: 5.0,5.0;" x1="36" x2="36" y1="87.6094" y2="802.6406"/><line style="stroke: #A80036; stroke-width: 1.0; stroke-dasharray: 5.0,5.0;" x1="224" x2="224" y1="87.6094" y2="802.6406"/><line style="stroke: #A80036; stroke-width: 1.0; stroke-dasharray: 5.0,5.0;" x1="434.5" x2="434.5" y1="87.6094" y2="802.6406"/><line style="stroke: #A80036; stroke-width: 1.0; stroke-dasharray: 5.0,5.0;" x1="494.5" x2="494.5" y1="87.6094" y2="802.6406"/><line style="stroke: #A80036; stroke-width: 1.0; stroke-dasharray: 5.0,5.0;" x1="557.5" x2="557.5" y1="87.6094" y2="802.6406"/><line style="stroke: #A80036; stroke-width: 1.0; stroke-dasharray: 5.0,5.0;" x1="627.5" x2="627.5" y1="87.6094" y2="802.6406"/><line style="stroke: #A80036; stroke-width: 1.0; stroke-dasharray: 5.0,5.0;" x1="698.5" x2="698.5" y1="87.6094" y2="802.6406"/><line style="stroke: #A80036; stroke-width: 1.0; stroke-dasharray: 5.0,5.0;" x1="770.5" x2="770.5" y1="87.6094" y2="802.6406"/><line style="stroke: #A80036; stroke-width: 1.0; stroke-dasharray: 5.0,5.0;" x1="836.5" x2="836.5" y1="87.6094" y2="802.6406"/><line style="stroke: #A80036; stroke-width: 1.0; stroke-dasharray: 5.0,5.0;" x1="919.5" x2="919.5" y1="87.6094" y2="802.6406"/><line style="stroke: #A80036; stroke-width: 1.0; stroke-dasharray: 5.0,5.0;" x1="1016.5" x2="1016.5" y1="87.6094" y2="802.6406"/><text fill="#000000" font-family="sans-serif" font-size="14" lengthAdjust="spacingAndGlyphs" textLength="50" x="8" y="84.5332">Veteran</text><ellipse cx="36" cy="13" fill="#FEFECE" filter="url(#ffltwqqivtuxe)" rx="8" ry="8" style="stroke: #A80036; stroke-width: 2.0;"/><path d="M36,21 L36,48 M23,29 L49,29 M36,48 L23,63 M36,48 L49,63 " fill="none" filter="url(#ffltwqqivtuxe)" style="stroke: #A80036; stroke-width: 2.0;"/><text fill="#000000" font-family="sans-serif" font-size="14" lengthAdjust="spacingAndGlyphs" textLength="50" x="8" y="816.1738">Veteran</text><ellipse cx="36" cy="829.25" fill="#FEFECE" filter="url(#ffltwqqivtuxe)" rx="8" ry="8" style="stroke: #A80036; stroke-width: 2.0;"/><path d="M36,837.25 L36,864.25 M23,845.25 L49,845.25 M36,864.25 L23,879.25 M36,864.25 L49,879.25 " fill="none" filter="url(#ffltwqqivtuxe)" style="stroke: #A80036; stroke-width: 2.0;"/><text fill="#000000" font-family="sans-serif" font-size="14" lengthAdjust="spacingAndGlyphs" textLength="28" x="207" y="84.5332">VSR</text><ellipse cx="224" cy="13" fill="#FEFECE" filter="url(#ffltwqqivtuxe)" rx="8" ry="8" style="stroke: #A80036; stroke-width: 2.0;"/><path d="M224,21 L224,48 M211,29 L237,29 M224,48 L211,63 M224,48 L237,63 " fill="none" filter="url(#ffltwqqivtuxe)" style="stroke: #A80036; stroke-width: 2.0;"/><text fill="#000000" font-family="sans-serif" font-size="14" lengthAdjust="spacingAndGlyphs" textLength="28" x="207" y="816.1738">VSR</text><ellipse cx="224" cy="829.25" fill="#FEFECE" filter="url(#ffltwqqivtuxe)" rx="8" ry="8" style="stroke: #A80036; stroke-width: 2.0;"/><path d="M224,837.25 L224,864.25 M211,845.25 L237,845.25 M224,864.25 L211,879.25 M224,864.25 L237,879.25 " fill="none" filter="url(#ffltwqqivtuxe)" style="stroke: #A80036; stroke-width: 2.0;"/><rect fill="#FEFECE" filter="url(#ffltwqqivtuxe)" height="31.6094" style="stroke: #A80036; stroke-width: 1.5;" width="55" x="405.5" y="51"/><text fill="#000000" font-family="sans-serif" font-size="14" lengthAdjust="spacingAndGlyphs" textLength="41" x="412.5" y="72.5332">CAPRI</text><rect fill="#FEFECE" filter="url(#ffltwqqivtuxe)" height="31.6094" style="stroke: #A80036; stroke-width: 1.5;" width="55" x="405.5" y="801.6406"/><text fill="#000000" font-family="sans-serif" font-size="14" lengthAdjust="spacingAndGlyphs" textLength="41" x="412.5" y="823.1738">CAPRI</text><rect fill="#FEFECE" filter="url(#ffltwqqivtuxe)" height="31.6094" style="stroke: #A80036; stroke-width: 1.5;" width="37" x="474.5" y="51"/><text fill="#000000" font-family="sans-serif" font-size="14" lengthAdjust="spacingAndGlyphs" textLength="23" x="481.5" y="72.5332">JLV</text><rect fill="#FEFECE" filter="url(#ffltwqqivtuxe)" height="31.6094" style="stroke: #A80036; stroke-width: 1.5;" width="37" x="474.5" y="801.6406"/><text fill="#000000" font-family="sans-serif" font-size="14" lengthAdjust="spacingAndGlyphs" textLength="23" x="481.5" y="823.1738">JLV</text><rect fill="#FEFECE" filter="url(#ffltwqqivtuxe)" height="31.6094" style="stroke: #A80036; stroke-width: 1.5;" width="60" x="525.5" y="51"/><text fill="#000000" font-family="sans-serif" font-size="14" lengthAdjust="spacingAndGlyphs" textLength="46" x="532.5" y="72.5332">SHARE</text><rect fill="#FEFECE" filter="url(#ffltwqqivtuxe)" height="31.6094" style="stroke: #A80036; stroke-width: 1.5;" width="60" x="525.5" y="801.6406"/><text fill="#000000" font-family="sans-serif" font-size="14" lengthAdjust="spacingAndGlyphs" textLength="46" x="532.5" y="823.1738">SHARE</text><rect fill="#FEFECE" filter="url(#ffltwqqivtuxe)" height="31.6094" style="stroke: #A80036; stroke-width: 1.5;" width="52" x="599.5" y="51"/><text fill="#000000" font-family="sans-serif" font-size="14" lengthAdjust="spacingAndGlyphs" textLength="38" x="606.5" y="72.5332">VBMS</text><rect fill="#FEFECE" filter="url(#ffltwqqivtuxe)" height="31.6094" style="stroke: #A80036; stroke-width: 1.5;" width="52" x="599.5" y="801.6406"/><text fill="#000000" font-family="sans-serif" font-size="14" lengthAdjust="spacingAndGlyphs" textLength="38" x="606.5" y="823.1738">VBMS</text><rect fill="#FEFECE" filter="url(#ffltwqqivtuxe)" height="31.6094" style="stroke: #A80036; stroke-width: 1.5;" width="63" x="665.5" y="51"/><text fill="#000000" font-family="sans-serif" font-size="14" lengthAdjust="spacingAndGlyphs" textLength="49" x="672.5" y="72.5332">eFolder</text><rect fill="#FEFECE" filter="url(#ffltwqqivtuxe)" height="31.6094" style="stroke: #A80036; stroke-width: 1.5;" width="63" x="665.5" y="801.6406"/><text fill="#000000" font-family="sans-serif" font-size="14" lengthAdjust="spacingAndGlyphs" textLength="49" x="672.5" y="823.1738">eFolder</text><rect fill="#FEFECE" filter="url(#ffltwqqivtuxe)" height="31.6094" style="stroke: #A80036; stroke-width: 1.5;" width="52" x="742.5" y="51"/><text fill="#000000" font-family="sans-serif" font-size="14" lengthAdjust="spacingAndGlyphs" textLength="38" x="749.5" y="72.5332">ERRA</text><rect fill="#FEFECE" filter="url(#ffltwqqivtuxe)" height="31.6094" style="stroke: #A80036; stroke-width: 1.5;" width="52" x="742.5" y="801.6406"/><text fill="#000000" font-family="sans-serif" font-size="14" lengthAdjust="spacingAndGlyphs" textLength="38" x="749.5" y="823.1738">ERRA</text><rect fill="#FEFECE" filter="url(#ffltwqqivtuxe)" height="31.6094" style="stroke: #A80036; stroke-width: 1.5;" width="52" x="808.5" y="51"/><text fill="#000000" font-family="sans-serif" font-size="14" lengthAdjust="spacingAndGlyphs" textLength="38" x="815.5" y="72.5332">CPRS</text><rect fill="#FEFECE" filter="url(#ffltwqqivtuxe)" height="31.6094" style="stroke: #A80036; stroke-width: 1.5;" width="52" x="808.5" y="801.6406"/><text fill="#000000" font-family="sans-serif" font-size="14" lengthAdjust="spacingAndGlyphs" textLength="38" x="815.5" y="823.1738">CPRS</text><text fill="#000000" font-family="sans-serif" font-size="14" lengthAdjust="spacingAndGlyphs" textLength="85" x="874.5" y="84.5332">C&amp;P Provider</text><ellipse cx="920" cy="13" fill="#FEFECE" filter="url(#ffltwqqivtuxe)" rx="8" ry="8" style="stroke: #A80036; stroke-width: 2.0;"/><path d="M920,21 L920,48 M907,29 L933,29 M920,48 L907,63 M920,48 L933,63 " fill="none" filter="url(#ffltwqqivtuxe)" style="stroke: #A80036; stroke-width: 2.0;"/><text fill="#000000" font-family="sans-serif" font-size="14" lengthAdjust="spacingAndGlyphs" textLength="85" x="874.5" y="816.1738">C&amp;P Provider</text><ellipse cx="920" cy="829.25" fill="#FEFECE" filter="url(#ffltwqqivtuxe)" rx="8" ry="8" style="stroke: #A80036; stroke-width: 2.0;"/><path d="M920,837.25 L920,864.25 M907,845.25 L933,845.25 M920,864.25 L907,879.25 M920,864.25 L933,879.25 " fill="none" filter="url(#ffltwqqivtuxe)" style="stroke: #A80036; stroke-width: 2.0;"/><text fill="#000000" font-family="sans-serif" font-size="14" lengthAdjust="spacingAndGlyphs" textLength="77" x="975.5" y="84.5332">VHA Vendor</text><ellipse cx="1017" cy="13" fill="#FEFECE" filter="url(#ffltwqqivtuxe)" rx="8" ry="8" style="stroke: #A80036; stroke-width: 2.0;"/><path d="M1017,21 L1017,48 M1004,29 L1030,29 M1017,48 L1004,63 M1017,48 L1030,63 " fill="none" filter="url(#ffltwqqivtuxe)" style="stroke: #A80036; stroke-width: 2.0;"/><text fill="#000000" font-family="sans-serif" font-size="14" lengthAdjust="spacingAndGlyphs" textLength="77" x="975.5" y="816.1738">VHA Vendor</text><ellipse cx="1017" cy="829.25" fill="#FEFECE" filter="url(#ffltwqqivtuxe)" rx="8" ry="8" style="stroke: #A80036; stroke-width: 2.0;"/><path d="M1017,837.25 L1017,864.25 M1004,845.25 L1030,845.25 M1017,864.25 L1004,879.25 M1017,864.25 L1030,879.25 " fill="none" filter="url(#ffltwqqivtuxe)" style="stroke: #A80036; stroke-width: 2.0;"/><polygon fill="#A80036" points="212,115.9609,222,119.9609,212,123.9609,216,119.9609" style="stroke: #A80036; stroke-width: 1.0;"/><line style="stroke: #A80036; stroke-width: 1.0;" x1="36" x2="218" y1="119.9609" y2="119.9609"/><text fill="#000000" font-family="sans-serif" font-size="13" lengthAdjust="spacingAndGlyphs" textLength="78" x="43" y="115.1045">Submit Claim</text><polygon fill="#A80036" points="615.5,195.3672,625.5,199.3672,615.5,203.3672,619.5,199.3672" style="stroke: #A80036; stroke-width: 1.0;"/><line style="stroke: #A80036; stroke-width: 1.0;" x1="224" x2="621.5" y1="199.3672" y2="199.3672"/><text fill="#000000" font-family="sans-serif" font-size="13" lengthAdjust="spacingAndGlyphs" textLength="95" x="231" y="145.4561">VA Form 21-526</text><text fill="#000000" font-family="sans-serif" font-size="13" lengthAdjust="spacingAndGlyphs" textLength="81" x="231" y="161.8076">Original Claim</text><text fill="#000000" font-family="sans-serif" font-size="13" lengthAdjust="spacingAndGlyphs" textLength="134" x="231" y="178.1592">Substantially Complete</text><text fill="#000000" font-family="sans-serif" font-size="13" lengthAdjust="spacingAndGlyphs" textLength="173" x="231" y="194.5107">Claims Establishment (CEST)</text><line style="stroke: #A80036; stroke-width: 1.0;" x1="224" x2="266" y1="229.7188" y2="229.7188"/><line style="stroke: #A80036; stroke-width: 1.0;" x1="266" x2="266" y1="229.7188" y2="242.7188"/><line style="stroke: #A80036; stroke-width: 1.0;" x1="225" x2="266" y1="242.7188" y2="242.7188"/><polygon fill="#A80036" points="235,238.7188,225,242.7188,235,246.7188,231,242.7188" style="stroke: #A80036; stroke-width: 1.0;"/><text fill="#000000" font-family="sans-serif" font-size="13" lengthAdjust="spacingAndGlyphs" textLength="176" x="231" y="224.8623">Service Verified and Honorable</text><line style="stroke: #A80036; stroke-width: 1.0;" x1="224" x2="266" y1="273.0703" y2="273.0703"/><line style="stroke: #A80036; stroke-width: 1.0;" x1="266" x2="266" y1="273.0703" y2="286.0703"/><line style="stroke: #A80036; stroke-width: 1.0;" x1="225" x2="266" y1="286.0703" y2="286.0703"/><polygon fill="#A80036" points="235,282.0703,225,286.0703,235,290.0703,231,286.0703" style="stroke: #A80036; stroke-width: 1.0;"/><text fill="#000000" font-family="sans-serif" font-size="13" lengthAdjust="spacingAndGlyphs" textLength="197" x="231" y="268.2139">Determine Type of Military Service</text><line style="stroke: #A80036; stroke-width: 1.0;" x1="224" x2="266" y1="316.4219" y2="316.4219"/><line style="stroke: #A80036; stroke-width: 1.0;" x1="266" x2="266" y1="316.4219" y2="329.4219"/><line style="stroke: #A80036; stroke-width: 1.0;" x1="225" x2="266" y1="329.4219" y2="329.4219"/><polygon fill="#A80036" points="235,325.4219,225,329.4219,235,333.4219,231,329.4219" style="stroke: #A80036; stroke-width: 1.0;"/><text fill="#000000" font-family="sans-serif" font-size="13" lengthAdjust="spacingAndGlyphs" textLength="167" x="231" y="311.5654">Obtain / Review of ALL STRs</text><polygon fill="#A80036" points="47,355.7734,37,359.7734,47,363.7734,43,359.7734" style="stroke: #A80036; stroke-width: 1.0;"/><line style="stroke: #A80036; stroke-width: 1.0;" x1="41" x2="223" y1="359.7734" y2="359.7734"/><text fill="#000000" font-family="sans-serif" font-size="13" lengthAdjust="spacingAndGlyphs" textLength="164" x="53" y="354.917">Acknowledge recieved STRs</text><line style="stroke: #A80036; stroke-width: 1.0;" x1="224" x2="266" y1="390.125" y2="390.125"/><line style="stroke: #A80036; stroke-width: 1.0;" x1="266" x2="266" y1="390.125" y2="403.125"/><line style="stroke: #A80036; stroke-width: 1.0;" x1="225" x2="266" y1="403.125" y2="403.125"/><polygon fill="#A80036" points="235,399.125,225,403.125,235,407.125,231,403.125" style="stroke: #A80036; stroke-width: 1.0;"/><text fill="#000000" font-family="sans-serif" font-size="13" lengthAdjust="spacingAndGlyphs" textLength="131" x="231" y="385.2686">Special Category Tags</text><polygon fill="#A80036" points="423,429.4766,433,433.4766,423,437.4766,427,433.4766" style="stroke: #A80036; stroke-width: 1.0;"/><line style="stroke: #A80036; stroke-width: 1.0;" x1="224" x2="429" y1="433.4766" y2="433.4766"/><text fill="#000000" font-family="sans-serif" font-size="13" lengthAdjust="spacingAndGlyphs" textLength="76" x="231" y="428.6201">Review STRs</text><polygon fill="#A80036" points="483,459.8281,493,463.8281,483,467.8281,487,463.8281" style="stroke: #A80036; stroke-width: 1.0;"/><line style="stroke: #A80036; stroke-width: 1.0;" x1="224" x2="489" y1="463.8281" y2="463.8281"/><text fill="#000000" font-family="sans-serif" font-size="13" lengthAdjust="spacingAndGlyphs" textLength="111" x="231" y="458.9717">Review SHA, STRs</text><line style="stroke: #A80036; stroke-width: 1.0;" x1="224" x2="266" y1="494.1797" y2="494.1797"/><line style="stroke: #A80036; stroke-width: 1.0;" x1="266" x2="266" y1="494.1797" y2="507.1797"/><line style="stroke: #A80036; stroke-width: 1.0;" x1="225" x2="266" y1="507.1797" y2="507.1797"/><polygon fill="#A80036" points="235,503.1797,225,507.1797,235,511.1797,231,507.1797" style="stroke: #A80036; stroke-width: 1.0;"/><text fill="#000000" font-family="sans-serif" font-size="13" lengthAdjust="spacingAndGlyphs" textLength="155" x="231" y="489.3232">Visually Impaired Veterans</text><line style="stroke: #A80036; stroke-width: 1.0;" x1="224" x2="266" y1="537.5313" y2="537.5313"/><line style="stroke: #A80036; stroke-width: 1.0;" x1="266" x2="266" y1="537.5313" y2="550.5313"/><line style="stroke: #A80036; stroke-width: 1.0;" x1="225" x2="266" y1="550.5313" y2="550.5313"/><polygon fill="#A80036" points="235,546.5313,225,550.5313,235,554.5313,231,550.5313" style="stroke: #A80036; stroke-width: 1.0;"/><text fill="#000000" font-family="sans-serif" font-size="13" lengthAdjust="spacingAndGlyphs" textLength="150" x="231" y="532.6748">Dependency Development</text><line style="stroke: #A80036; stroke-width: 1.0;" x1="224" x2="266" y1="580.8828" y2="580.8828"/><line style="stroke: #A80036; stroke-width: 1.0;" x1="266" x2="266" y1="580.8828" y2="593.8828"/><line style="stroke: #A80036; stroke-width: 1.0;" x1="225" x2="266" y1="593.8828" y2="593.8828"/><polygon fill="#A80036" points="235,589.8828,225,593.8828,235,597.8828,231,593.8828" style="stroke: #A80036; stroke-width: 1.0;"/><text fill="#000000" font-family="sans-serif" font-size="13" lengthAdjust="spacingAndGlyphs" textLength="167" x="231" y="576.0264">Criteria for Extreme Hardship</text><line style="stroke: #A80036; stroke-width: 1.0;" x1="224" x2="266" y1="624.2344" y2="624.2344"/><line style="stroke: #A80036; stroke-width: 1.0;" x1="266" x2="266" y1="624.2344" y2="637.2344"/><line style="stroke: #A80036; stroke-width: 1.0;" x1="225" x2="266" y1="637.2344" y2="637.2344"/><polygon fill="#A80036" points="235,633.2344,225,637.2344,235,641.2344,231,637.2344" style="stroke: #A80036; stroke-width: 1.0;"/><text fill="#000000" font-family="sans-serif" font-size="13" lengthAdjust="spacingAndGlyphs" textLength="193" x="231" y="619.3779">No Service Connected Conditions</text><line style="stroke: #A80036; stroke-width: 1.0;" x1="224" x2="266" y1="667.5859" y2="667.5859"/><line style="stroke: #A80036; stroke-width: 1.0;" x1="266" x2="266" y1="667.5859" y2="680.5859"/><line style="stroke: #A80036; stroke-width: 1.0;" x1="225" x2="266" y1="680.5859" y2="680.5859"/><polygon fill="#A80036" points="235,676.5859,225,680.5859,235,684.5859,231,680.5859" style="stroke: #A80036; stroke-width: 1.0;"/><text fill="#000000" font-family="sans-serif" font-size="13" lengthAdjust="spacingAndGlyphs" textLength="95" x="231" y="662.7295">Chronic Disease</text><line style="stroke: #A80036; stroke-width: 1.0;" x1="224" x2="266" y1="710.9375" y2="710.9375"/><line style="stroke: #A80036; stroke-width: 1.0;" x1="266" x2="266" y1="710.9375" y2="723.9375"/><line style="stroke: #A80036; stroke-width: 1.0;" x1="225" x2="266" y1="723.9375" y2="723.9375"/><polygon fill="#A80036" points="235,719.9375,225,723.9375,235,727.9375,231,723.9375" style="stroke: #A80036; stroke-width: 1.0;"/><text fill="#000000" font-family="sans-serif" font-size="13" lengthAdjust="spacingAndGlyphs" textLength="105" x="231" y="706.0811">Herbicide Disease</text><polygon fill="#A80036" points="758.5,750.2891,768.5,754.2891,758.5,758.2891,762.5,754.2891" style="stroke: #A80036; stroke-width: 1.0;"/><line style="stroke: #A80036; stroke-width: 1.0;" x1="224" x2="764.5" y1="754.2891" y2="754.2891"/><text fill="#000000" font-family="sans-serif" font-size="13" lengthAdjust="spacingAndGlyphs" textLength="81" x="231" y="749.4326">Lookup by Zip</text><polygon fill="#A80036" points="235,780.6406,225,784.6406,235,788.6406,231,784.6406" style="stroke: #A80036; stroke-width: 1.0;"/><line style="stroke: #A80036; stroke-width: 1.0;" x1="229" x2="769.5" y1="784.6406" y2="784.6406"/><text fill="#000000" font-family="sans-serif" font-size="13" lengthAdjust="spacingAndGlyphs" textLength="132" x="241" y="779.7842">Return Lookup Results</text><!--
@startuml

actor Veteran
actor VSR
participant CAPRI
participant JLV
participant SHARE
participant VBMS
participant eFolder
participant ERRA
participant CPRS
actor "C&P Provider" as Provider
actor "VHA Vendor" as Vendor

Veteran -> VSR : Submit Claim
VSR -> VBMS : VA Form 21-526\nOriginal Claim\nSubstantially Complete\nClaims Establishment (CEST)
VSR -> VSR : Service Verified and Honorable
VSR -> VSR : Determine Type of Military Service
VSR -> VSR : Obtain / Review of ALL STRs
VSR -> Veteran : Acknowledge recieved STRs
VSR -> VSR : Special Category Tags
VSR -> CAPRI : Review STRs
VSR -> JLV : Review SHA, STRs
VSR -> VSR : Visually Impaired Veterans
VSR -> VSR : Dependency Development
VSR -> VSR : Criteria for Extreme Hardship
VSR -> VSR : No Service Connected Conditions
VSR -> VSR : Chronic Disease
VSR -> VSR : Herbicide Disease
VSR -> ERRA : Lookup by Zip
ERRA -> VSR : Return Lookup Results
@enduml

PlantUML version 1.2019.00(Sun Jan 13 10:46:42 EST 2019)
(EPL source distribution)
Java Runtime: Java(TM) SE Runtime Environment
JVM: Java HotSpot(TM) 64-Bit Server VM
Java Version: 1.8.0_112-b15
Operating System: Windows 10
OS Version: 10.0
Default Encoding: Cp1252
Language: en
Country: US
--></g></svg>