<?xml version="1.0" encoding="UTF-8" standalone="no"?><svg xmlns="http://www.w3.org/2000/svg" xmlns:xlink="http://www.w3.org/1999/xlink" contentScriptType="application/ecmascript" contentStyleType="text/css" height="654px" preserveAspectRatio="none" style="width:669px;height:654px;" version="1.1" viewBox="0 0 669 654" width="669px" zoomAndPan="magnify"><defs><filter height="300%" id="f7hvez98mqi8b" width="300%" x="-1" y="-1"><feGaussianBlur result="blurOut" stdDeviation="2.0"/><feColorMatrix in="blurOut" result="blurOut2" type="matrix" values="0 0 0 0 0 0 0 0 0 0 0 0 0 0 0 0 0 0 .4 0"/><feOffset dx="4.0" dy="4.0" in="blurOut2" result="blurOut3"/><feBlend in="SourceGraphic" in2="blurOut3" mode="normal"/></filter></defs><g><line style="stroke: #A80036; stroke-width: 1.0; stroke-dasharray: 5.0,5.0;" x1="36" x2="36" y1="105.2188" y2="548.4922"/><line style="stroke: #A80036; stroke-width: 1.0; stroke-dasharray: 5.0,5.0;" x1="138" x2="138" y1="105.2188" y2="548.4922"/><line style="stroke: #A80036; stroke-width: 1.0; stroke-dasharray: 5.0,5.0;" x1="221" x2="221" y1="105.2188" y2="548.4922"/><line style="stroke: #A80036; stroke-width: 1.0; stroke-dasharray: 5.0,5.0;" x1="367.5" x2="367.5" y1="105.2188" y2="548.4922"/><line style="stroke: #A80036; stroke-width: 1.0; stroke-dasharray: 5.0,5.0;" x1="523" x2="523" y1="105.2188" y2="548.4922"/><line style="stroke: #A80036; stroke-width: 1.0; stroke-dasharray: 5.0,5.0;" x1="617" x2="617" y1="105.2188" y2="548.4922"/><text fill="#000000" font-family="sans-serif" font-size="14" lengthAdjust="spacingAndGlyphs" textLength="50" x="8" y="102.1426">Veteran</text><ellipse cx="36" cy="30.6094" fill="#FEFECE" filter="url(#f7hvez98mqi8b)" rx="8" ry="8" style="stroke: #A80036; stroke-width: 2.0;"/><path d="M36,38.6094 L36,65.6094 M23,46.6094 L49,46.6094 M36,65.6094 L23,80.6094 M36,65.6094 L49,80.6094 " fill="none" filter="url(#f7hvez98mqi8b)" style="stroke: #A80036; stroke-width: 2.0;"/><text fill="#000000" font-family="sans-serif" font-size="14" lengthAdjust="spacingAndGlyphs" textLength="50" x="8" y="562.0254">Veteran</text><ellipse cx="36" cy="575.1016" fill="#FEFECE" filter="url(#f7hvez98mqi8b)" rx="8" ry="8" style="stroke: #A80036; stroke-width: 2.0;"/><path d="M36,583.1016 L36,610.1016 M23,591.1016 L49,591.1016 M36,610.1016 L23,625.1016 M36,610.1016 L49,625.1016 " fill="none" filter="url(#f7hvez98mqi8b)" style="stroke: #A80036; stroke-width: 2.0;"/><text fill="#000000" font-family="sans-serif" font-size="14" lengthAdjust="spacingAndGlyphs" textLength="28" x="121" y="102.1426">VSR</text><ellipse cx="138" cy="30.6094" fill="#FEFECE" filter="url(#f7hvez98mqi8b)" rx="8" ry="8" style="stroke: #A80036; stroke-width: 2.0;"/><path d="M138,38.6094 L138,65.6094 M125,46.6094 L151,46.6094 M138,65.6094 L125,80.6094 M138,65.6094 L151,80.6094 " fill="none" filter="url(#f7hvez98mqi8b)" style="stroke: #A80036; stroke-width: 2.0;"/><text fill="#000000" font-family="sans-serif" font-size="14" lengthAdjust="spacingAndGlyphs" textLength="28" x="121" y="562.0254">VSR</text><ellipse cx="138" cy="575.1016" fill="#FEFECE" filter="url(#f7hvez98mqi8b)" rx="8" ry="8" style="stroke: #A80036; stroke-width: 2.0;"/><path d="M138,583.1016 L138,610.1016 M125,591.1016 L151,591.1016 M138,610.1016 L125,625.1016 M138,610.1016 L151,625.1016 " fill="none" filter="url(#f7hvez98mqi8b)" style="stroke: #A80036; stroke-width: 2.0;"/><rect fill="#FEFECE" filter="url(#f7hvez98mqi8b)" height="31.6094" style="stroke: #A80036; stroke-width: 1.5;" width="52" x="193" y="68.6094"/><text fill="#000000" font-family="sans-serif" font-size="14" lengthAdjust="spacingAndGlyphs" textLength="38" x="200" y="90.1426">VBMS</text><rect fill="#FEFECE" filter="url(#f7hvez98mqi8b)" height="31.6094" style="stroke: #A80036; stroke-width: 1.5;" width="52" x="193" y="547.4922"/><text fill="#000000" font-family="sans-serif" font-size="14" lengthAdjust="spacingAndGlyphs" textLength="38" x="200" y="569.0254">VBMS</text><rect fill="#FEFECE" filter="url(#f7hvez98mqi8b)" height="31.6094" style="stroke: #A80036; stroke-width: 1.5;" width="41" x="345.5" y="68.6094"/><text fill="#000000" font-family="sans-serif" font-size="14" lengthAdjust="spacingAndGlyphs" textLength="27" x="352.5" y="90.1426">VHA</text><rect fill="#FEFECE" filter="url(#f7hvez98mqi8b)" height="31.6094" style="stroke: #A80036; stroke-width: 1.5;" width="41" x="345.5" y="547.4922"/><text fill="#000000" font-family="sans-serif" font-size="14" lengthAdjust="spacingAndGlyphs" textLength="27" x="352.5" y="569.0254">VHA</text><text fill="#000000" font-family="sans-serif" font-size="14" lengthAdjust="spacingAndGlyphs" textLength="72" x="484" y="84.5332">VHA Triage</text><text fill="#000000" font-family="sans-serif" font-size="14" lengthAdjust="spacingAndGlyphs" textLength="70" x="485" y="102.1426">Scheduling</text><ellipse cx="523" cy="13" fill="#FEFECE" filter="url(#f7hvez98mqi8b)" rx="8" ry="8" style="stroke: #A80036; stroke-width: 2.0;"/><path d="M523,21 L523,48 M510,29 L536,29 M523,48 L510,63 M523,48 L536,63 " fill="none" filter="url(#f7hvez98mqi8b)" style="stroke: #A80036; stroke-width: 2.0;"/><text fill="#000000" font-family="sans-serif" font-size="14" lengthAdjust="spacingAndGlyphs" textLength="72" x="484" y="562.0254">VHA Triage</text><text fill="#000000" font-family="sans-serif" font-size="14" lengthAdjust="spacingAndGlyphs" textLength="70" x="485" y="579.6348">Scheduling</text><ellipse cx="523" cy="592.7109" fill="#FEFECE" filter="url(#f7hvez98mqi8b)" rx="8" ry="8" style="stroke: #A80036; stroke-width: 2.0;"/><path d="M523,600.7109 L523,627.7109 M510,608.7109 L536,608.7109 M523,627.7109 L510,642.7109 M523,627.7109 L536,642.7109 " fill="none" filter="url(#f7hvez98mqi8b)" style="stroke: #A80036; stroke-width: 2.0;"/><text fill="#000000" font-family="sans-serif" font-size="14" lengthAdjust="spacingAndGlyphs" textLength="85" x="572" y="102.1426">C&amp;P Provider</text><ellipse cx="617.5" cy="30.6094" fill="#FEFECE" filter="url(#f7hvez98mqi8b)" rx="8" ry="8" style="stroke: #A80036; stroke-width: 2.0;"/><path d="M617.5,38.6094 L617.5,65.6094 M604.5,46.6094 L630.5,46.6094 M617.5,65.6094 L604.5,80.6094 M617.5,65.6094 L630.5,80.6094 " fill="none" filter="url(#f7hvez98mqi8b)" style="stroke: #A80036; stroke-width: 2.0;"/><text fill="#000000" font-family="sans-serif" font-size="14" lengthAdjust="spacingAndGlyphs" textLength="85" x="572" y="562.0254">C&amp;P Provider</text><ellipse cx="617.5" cy="575.1016" fill="#FEFECE" filter="url(#f7hvez98mqi8b)" rx="8" ry="8" style="stroke: #A80036; stroke-width: 2.0;"/><path d="M617.5,583.1016 L617.5,610.1016 M604.5,591.1016 L630.5,591.1016 M617.5,610.1016 L604.5,625.1016 M617.5,610.1016 L630.5,625.1016 " fill="none" filter="url(#f7hvez98mqi8b)" style="stroke: #A80036; stroke-width: 2.0;"/><path d="M11,120.2188 L11,146.2188 L57,146.2188 L57,130.2188 L47,120.2188 L11,120.2188 " fill="#FBFB77" filter="url(#f7hvez98mqi8b)" style="stroke: #A80036; stroke-width: 1.0;"/><path d="M47,120.2188 L47,130.2188 L57,130.2188 L47,120.2188 " fill="#FBFB77" style="stroke: #A80036; stroke-width: 1.0;"/><text fill="#000000" font-family="sans-serif" font-size="13" lengthAdjust="spacingAndGlyphs" textLength="25" x="17" y="138.7139">Test</text><polygon fill="#A80036" points="126,190.2734,136,194.2734,126,198.2734,130,194.2734" style="stroke: #A80036; stroke-width: 1.0;"/><line style="stroke: #A80036; stroke-width: 1.0;" x1="36" x2="132" y1="194.2734" y2="194.2734"/><text fill="#000000" font-family="sans-serif" font-size="13" lengthAdjust="spacingAndGlyphs" textLength="78" x="43" y="173.0654">Submit Claim</text><text fill="#000000" font-family="sans-serif" font-size="13" lengthAdjust="spacingAndGlyphs" textLength="69" x="43" y="189.417">Contentions</text><polygon fill="#A80036" points="209,220.625,219,224.625,209,228.625,213,224.625" style="stroke: #A80036; stroke-width: 1.0;"/><line style="stroke: #A80036; stroke-width: 1.0;" x1="138" x2="215" y1="224.625" y2="224.625"/><text fill="#000000" font-family="sans-serif" font-size="13" lengthAdjust="spacingAndGlyphs" textLength="34" x="145" y="219.7686">CEST</text><polygon fill="#A80036" points="209,250.9766,219,254.9766,209,258.9766,213,254.9766" style="stroke: #A80036; stroke-width: 1.0;"/><line style="stroke: #A80036; stroke-width: 1.0;" x1="138" x2="215" y1="254.9766" y2="254.9766"/><text fill="#000000" font-family="sans-serif" font-size="13" lengthAdjust="spacingAndGlyphs" textLength="59" x="145" y="250.1201">Exam Tab</text><polygon fill="#A80036" points="356,297.6797,366,301.6797,356,305.6797,360,301.6797" style="stroke: #A80036; stroke-width: 1.0;"/><line style="stroke: #A80036; stroke-width: 1.0;" x1="221" x2="362" y1="301.6797" y2="301.6797"/><text fill="#000000" font-family="sans-serif" font-size="13" lengthAdjust="spacingAndGlyphs" textLength="102" x="228" y="280.4717">Exam Scheduling</text><text fill="#000000" font-family="sans-serif" font-size="13" lengthAdjust="spacingAndGlyphs" textLength="123" x="228" y="296.8232">Request Event (ESR)</text><polygon fill="#A80036" points="232,328.0313,222,332.0313,232,336.0313,228,332.0313" style="stroke: #A80036; stroke-width: 1.0;"/><line style="stroke: #A80036; stroke-width: 1.0;" x1="226" x2="367" y1="332.0313" y2="332.0313"/><text fill="#000000" font-family="sans-serif" font-size="13" lengthAdjust="spacingAndGlyphs" textLength="54" x="238" y="327.1748">ESR Ack</text><polygon fill="#A80036" points="511,358.3828,521,362.3828,511,366.3828,515,362.3828" style="stroke: #A80036; stroke-width: 1.0;"/><line style="stroke: #A80036; stroke-width: 1.0;" x1="368" x2="517" y1="362.3828" y2="362.3828"/><text fill="#000000" font-family="sans-serif" font-size="13" lengthAdjust="spacingAndGlyphs" textLength="27" x="375" y="357.5264">ESR</text><polygon fill="#A80036" points="379,388.7344,369,392.7344,379,396.7344,375,392.7344" style="stroke: #A80036; stroke-width: 1.0;"/><line style="stroke: #A80036; stroke-width: 1.0;" x1="373" x2="522" y1="392.7344" y2="392.7344"/><text fill="#000000" font-family="sans-serif" font-size="13" lengthAdjust="spacingAndGlyphs" textLength="131" x="385" y="387.8779">Schedule Appointment</text><polygon fill="#A80036" points="232,435.4375,222,439.4375,232,443.4375,228,439.4375" style="stroke: #A80036; stroke-width: 1.0;"/><line style="stroke: #A80036; stroke-width: 1.0;" x1="226" x2="367" y1="439.4375" y2="439.4375"/><text fill="#000000" font-family="sans-serif" font-size="13" lengthAdjust="spacingAndGlyphs" textLength="73" x="238" y="418.2295">Appointment</text><text fill="#000000" font-family="sans-serif" font-size="13" lengthAdjust="spacingAndGlyphs" textLength="81" x="238" y="434.5811">Schedule Ack</text><polygon fill="#A80036" points="605.5,465.7891,615.5,469.7891,605.5,473.7891,609.5,469.7891" style="stroke: #A80036; stroke-width: 1.0;"/><line style="stroke: #A80036; stroke-width: 1.0;" x1="368" x2="611.5" y1="469.7891" y2="469.7891"/><text fill="#000000" font-family="sans-serif" font-size="13" lengthAdjust="spacingAndGlyphs" textLength="200" x="375" y="464.9326">Exam Notification / Conduct Exam</text><polygon fill="#A80036" points="379,496.1406,369,500.1406,379,504.1406,375,500.1406" style="stroke: #A80036; stroke-width: 1.0;"/><line style="stroke: #A80036; stroke-width: 1.0;" x1="373" x2="616.5" y1="500.1406" y2="500.1406"/><text fill="#000000" font-family="sans-serif" font-size="13" lengthAdjust="spacingAndGlyphs" textLength="94" x="385" y="495.2842">Complete DBQs</text><polygon fill="#A80036" points="379,526.4922,369,530.4922,379,534.4922,375,530.4922" style="stroke: #A80036; stroke-width: 1.0;"/><line style="stroke: #A80036; stroke-width: 1.0;" x1="373" x2="616.5" y1="530.4922" y2="530.4922"/><text fill="#000000" font-family="sans-serif" font-size="13" lengthAdjust="spacingAndGlyphs" textLength="179" x="385" y="525.6357">Certifies Contentions Complete</text><!--
@startuml
actor Veteran
actor VSR
participant VBMS
participant VHA
actor "VHA Triage\nScheduling" as Triage
actor "C&P Provider" as Provider
note over Veteran : Test
Veteran -> VSR : Submit Claim\nContentions
VSR -> VBMS : CEST
VSR -> VBMS : Exam Tab
VBMS -> VHA : Exam Scheduling\nRequest Event (ESR)
VHA -> VBMS : ESR Ack
VHA -> Triage : ESR
Triage -> VHA : Schedule Appointment
VHA -> VBMS : Appointment\nSchedule Ack
VHA -> Provider : Exam Notification / Conduct Exam
Provider -> VHA : Complete DBQs
Provider -> VHA : Certifies Contentions Complete

@enduml

PlantUML version 1.2019.00(Sun Jan 13 10:46:42 EST 2019)
(EPL source distribution)
Java Runtime: Java(TM) SE Runtime Environment
JVM: Java HotSpot(TM) 64-Bit Server VM
Java Version: 1.8.0_112-b15
Operating System: Windows 10
OS Version: 10.0
Default Encoding: Cp1252
Language: en
Country: US
--></g></svg>