<?xml version="1.0" encoding="UTF-8" standalone="no"?><svg xmlns="http://www.w3.org/2000/svg" xmlns:xlink="http://www.w3.org/1999/xlink" contentScriptType="application/ecmascript" contentStyleType="text/css" height="614px" preserveAspectRatio="none" style="width:669px;height:614px;" version="1.1" viewBox="0 0 669 614" width="669px" zoomAndPan="magnify"><defs><filter height="300%" id="fysfz9v8ouand" width="300%" x="-1" y="-1"><feGaussianBlur result="blurOut" stdDeviation="2.0"/><feColorMatrix in="blurOut" result="blurOut2" type="matrix" values="0 0 0 0 0 0 0 0 0 0 0 0 0 0 0 0 0 0 .4 0"/><feOffset dx="4.0" dy="4.0" in="blurOut2" result="blurOut3"/><feBlend in="SourceGraphic" in2="blurOut3" mode="normal"/></filter></defs><g><line style="stroke: #A80036; stroke-width: 1.0; stroke-dasharray: 5.0,5.0;" x1="36" x2="36" y1="105.2188" y2="508.1406"/><line style="stroke: #A80036; stroke-width: 1.0; stroke-dasharray: 5.0,5.0;" x1="138" x2="138" y1="105.2188" y2="508.1406"/><line style="stroke: #A80036; stroke-width: 1.0; stroke-dasharray: 5.0,5.0;" x1="221" x2="221" y1="105.2188" y2="508.1406"/><line style="stroke: #A80036; stroke-width: 1.0; stroke-dasharray: 5.0,5.0;" x1="367.5" x2="367.5" y1="105.2188" y2="508.1406"/><line style="stroke: #A80036; stroke-width: 1.0; stroke-dasharray: 5.0,5.0;" x1="523" x2="523" y1="105.2188" y2="508.1406"/><line style="stroke: #A80036; stroke-width: 1.0; stroke-dasharray: 5.0,5.0;" x1="617" x2="617" y1="105.2188" y2="508.1406"/><text fill="#000000" font-family="sans-serif" font-size="14" lengthAdjust="spacingAndGlyphs" textLength="50" x="8" y="102.1426">Veteran</text><ellipse cx="36" cy="30.6094" fill="#FEFECE" filter="url(#fysfz9v8ouand)" rx="8" ry="8" style="stroke: #A80036; stroke-width: 2.0;"/><path d="M36,38.6094 L36,65.6094 M23,46.6094 L49,46.6094 M36,65.6094 L23,80.6094 M36,65.6094 L49,80.6094 " fill="none" filter="url(#fysfz9v8ouand)" style="stroke: #A80036; stroke-width: 2.0;"/><text fill="#000000" font-family="sans-serif" font-size="14" lengthAdjust="spacingAndGlyphs" textLength="50" x="8" y="521.6738">Veteran</text><ellipse cx="36" cy="534.75" fill="#FEFECE" filter="url(#fysfz9v8ouand)" rx="8" ry="8" style="stroke: #A80036; stroke-width: 2.0;"/><path d="M36,542.75 L36,569.75 M23,550.75 L49,550.75 M36,569.75 L23,584.75 M36,569.75 L49,584.75 " fill="none" filter="url(#fysfz9v8ouand)" style="stroke: #A80036; stroke-width: 2.0;"/><text fill="#000000" font-family="sans-serif" font-size="14" lengthAdjust="spacingAndGlyphs" textLength="28" x="121" y="102.1426">VSR</text><ellipse cx="138" cy="30.6094" fill="#FEFECE" filter="url(#fysfz9v8ouand)" rx="8" ry="8" style="stroke: #A80036; stroke-width: 2.0;"/><path d="M138,38.6094 L138,65.6094 M125,46.6094 L151,46.6094 M138,65.6094 L125,80.6094 M138,65.6094 L151,80.6094 " fill="none" filter="url(#fysfz9v8ouand)" style="stroke: #A80036; stroke-width: 2.0;"/><text fill="#000000" font-family="sans-serif" font-size="14" lengthAdjust="spacingAndGlyphs" textLength="28" x="121" y="521.6738">VSR</text><ellipse cx="138" cy="534.75" fill="#FEFECE" filter="url(#fysfz9v8ouand)" rx="8" ry="8" style="stroke: #A80036; stroke-width: 2.0;"/><path d="M138,542.75 L138,569.75 M125,550.75 L151,550.75 M138,569.75 L125,584.75 M138,569.75 L151,584.75 " fill="none" filter="url(#fysfz9v8ouand)" style="stroke: #A80036; stroke-width: 2.0;"/><rect fill="#FEFECE" filter="url(#fysfz9v8ouand)" height="31.6094" style="stroke: #A80036; stroke-width: 1.5;" width="52" x="193" y="68.6094"/><text fill="#000000" font-family="sans-serif" font-size="14" lengthAdjust="spacingAndGlyphs" textLength="38" x="200" y="90.1426">VBMS</text><rect fill="#FEFECE" filter="url(#fysfz9v8ouand)" height="31.6094" style="stroke: #A80036; stroke-width: 1.5;" width="52" x="193" y="507.1406"/><text fill="#000000" font-family="sans-serif" font-size="14" lengthAdjust="spacingAndGlyphs" textLength="38" x="200" y="528.6738">VBMS</text><rect fill="#FEFECE" filter="url(#fysfz9v8ouand)" height="31.6094" style="stroke: #A80036; stroke-width: 1.5;" width="41" x="345.5" y="68.6094"/><text fill="#000000" font-family="sans-serif" font-size="14" lengthAdjust="spacingAndGlyphs" textLength="27" x="352.5" y="90.1426">VHA</text><rect fill="#FEFECE" filter="url(#fysfz9v8ouand)" height="31.6094" style="stroke: #A80036; stroke-width: 1.5;" width="41" x="345.5" y="507.1406"/><text fill="#000000" font-family="sans-serif" font-size="14" lengthAdjust="spacingAndGlyphs" textLength="27" x="352.5" y="528.6738">VHA</text><text fill="#000000" font-family="sans-serif" font-size="14" lengthAdjust="spacingAndGlyphs" textLength="72" x="484" y="84.5332">VHA Triage</text><text fill="#000000" font-family="sans-serif" font-size="14" lengthAdjust="spacingAndGlyphs" textLength="70" x="485" y="102.1426">Scheduling</text><ellipse cx="523" cy="13" fill="#FEFECE" filter="url(#fysfz9v8ouand)" rx="8" ry="8" style="stroke: #A80036; stroke-width: 2.0;"/><path d="M523,21 L523,48 M510,29 L536,29 M523,48 L510,63 M523,48 L536,63 " fill="none" filter="url(#fysfz9v8ouand)" style="stroke: #A80036; stroke-width: 2.0;"/><text fill="#000000" font-family="sans-serif" font-size="14" lengthAdjust="spacingAndGlyphs" textLength="72" x="484" y="521.6738">VHA Triage</text><text fill="#000000" font-family="sans-serif" font-size="14" lengthAdjust="spacingAndGlyphs" textLength="70" x="485" y="539.2832">Scheduling</text><ellipse cx="523" cy="552.3594" fill="#FEFECE" filter="url(#fysfz9v8ouand)" rx="8" ry="8" style="stroke: #A80036; stroke-width: 2.0;"/><path d="M523,560.3594 L523,587.3594 M510,568.3594 L536,568.3594 M523,587.3594 L510,602.3594 M523,587.3594 L536,602.3594 " fill="none" filter="url(#fysfz9v8ouand)" style="stroke: #A80036; stroke-width: 2.0;"/><text fill="#000000" font-family="sans-serif" font-size="14" lengthAdjust="spacingAndGlyphs" textLength="85" x="572" y="102.1426">C&amp;P Provider</text><ellipse cx="617.5" cy="30.6094" fill="#FEFECE" filter="url(#fysfz9v8ouand)" rx="8" ry="8" style="stroke: #A80036; stroke-width: 2.0;"/><path d="M617.5,38.6094 L617.5,65.6094 M604.5,46.6094 L630.5,46.6094 M617.5,65.6094 L604.5,80.6094 M617.5,65.6094 L630.5,80.6094 " fill="none" filter="url(#fysfz9v8ouand)" style="stroke: #A80036; stroke-width: 2.0;"/><text fill="#000000" font-family="sans-serif" font-size="14" lengthAdjust="spacingAndGlyphs" textLength="85" x="572" y="521.6738">C&amp;P Provider</text><ellipse cx="617.5" cy="534.75" fill="#FEFECE" filter="url(#fysfz9v8ouand)" rx="8" ry="8" style="stroke: #A80036; stroke-width: 2.0;"/><path d="M617.5,542.75 L617.5,569.75 M604.5,550.75 L630.5,550.75 M617.5,569.75 L604.5,584.75 M617.5,569.75 L630.5,584.75 " fill="none" filter="url(#fysfz9v8ouand)" style="stroke: #A80036; stroke-width: 2.0;"/><polygon fill="#A80036" points="126,149.9219,136,153.9219,126,157.9219,130,153.9219" style="stroke: #A80036; stroke-width: 1.0;"/><line style="stroke: #A80036; stroke-width: 1.0;" x1="36" x2="132" y1="153.9219" y2="153.9219"/><text fill="#000000" font-family="sans-serif" font-size="13" lengthAdjust="spacingAndGlyphs" textLength="78" x="43" y="132.7139">Submit Claim</text><text fill="#000000" font-family="sans-serif" font-size="13" lengthAdjust="spacingAndGlyphs" textLength="69" x="43" y="149.0654">Contentions</text><polygon fill="#A80036" points="209,180.2734,219,184.2734,209,188.2734,213,184.2734" style="stroke: #A80036; stroke-width: 1.0;"/><line style="stroke: #A80036; stroke-width: 1.0;" x1="138" x2="215" y1="184.2734" y2="184.2734"/><text fill="#000000" font-family="sans-serif" font-size="13" lengthAdjust="spacingAndGlyphs" textLength="34" x="145" y="179.417">CEST</text><polygon fill="#A80036" points="209,210.625,219,214.625,209,218.625,213,214.625" style="stroke: #A80036; stroke-width: 1.0;"/><line style="stroke: #A80036; stroke-width: 1.0;" x1="138" x2="215" y1="214.625" y2="214.625"/><text fill="#000000" font-family="sans-serif" font-size="13" lengthAdjust="spacingAndGlyphs" textLength="59" x="145" y="209.7686">Exam Tab</text><polygon fill="#A80036" points="356,257.3281,366,261.3281,356,265.3281,360,261.3281" style="stroke: #A80036; stroke-width: 1.0;"/><line style="stroke: #A80036; stroke-width: 1.0;" x1="221" x2="362" y1="261.3281" y2="261.3281"/><text fill="#000000" font-family="sans-serif" font-size="13" lengthAdjust="spacingAndGlyphs" textLength="102" x="228" y="240.1201">Exam Scheduling</text><text fill="#000000" font-family="sans-serif" font-size="13" lengthAdjust="spacingAndGlyphs" textLength="123" x="228" y="256.4717">Request Event (ESR)</text><polygon fill="#A80036" points="232,287.6797,222,291.6797,232,295.6797,228,291.6797" style="stroke: #A80036; stroke-width: 1.0;"/><line style="stroke: #A80036; stroke-width: 1.0;" x1="226" x2="367" y1="291.6797" y2="291.6797"/><text fill="#000000" font-family="sans-serif" font-size="13" lengthAdjust="spacingAndGlyphs" textLength="54" x="238" y="286.8232">ESR Ack</text><polygon fill="#A80036" points="511,318.0313,521,322.0313,511,326.0313,515,322.0313" style="stroke: #A80036; stroke-width: 1.0;"/><line style="stroke: #A80036; stroke-width: 1.0;" x1="368" x2="517" y1="322.0313" y2="322.0313"/><text fill="#000000" font-family="sans-serif" font-size="13" lengthAdjust="spacingAndGlyphs" textLength="27" x="375" y="317.1748">ESR</text><polygon fill="#A80036" points="379,348.3828,369,352.3828,379,356.3828,375,352.3828" style="stroke: #A80036; stroke-width: 1.0;"/><line style="stroke: #A80036; stroke-width: 1.0;" x1="373" x2="522" y1="352.3828" y2="352.3828"/><text fill="#000000" font-family="sans-serif" font-size="13" lengthAdjust="spacingAndGlyphs" textLength="131" x="385" y="347.5264">Schedule Appointment</text><polygon fill="#A80036" points="232,395.0859,222,399.0859,232,403.0859,228,399.0859" style="stroke: #A80036; stroke-width: 1.0;"/><line style="stroke: #A80036; stroke-width: 1.0;" x1="226" x2="367" y1="399.0859" y2="399.0859"/><text fill="#000000" font-family="sans-serif" font-size="13" lengthAdjust="spacingAndGlyphs" textLength="73" x="238" y="377.8779">Appointment</text><text fill="#000000" font-family="sans-serif" font-size="13" lengthAdjust="spacingAndGlyphs" textLength="81" x="238" y="394.2295">Schedule Ack</text><polygon fill="#A80036" points="605.5,425.4375,615.5,429.4375,605.5,433.4375,609.5,429.4375" style="stroke: #A80036; stroke-width: 1.0;"/><line style="stroke: #A80036; stroke-width: 1.0;" x1="368" x2="611.5" y1="429.4375" y2="429.4375"/><text fill="#000000" font-family="sans-serif" font-size="13" lengthAdjust="spacingAndGlyphs" textLength="200" x="375" y="424.5811">Exam Notification / Conduct Exam</text><polygon fill="#A80036" points="379,455.7891,369,459.7891,379,463.7891,375,459.7891" style="stroke: #A80036; stroke-width: 1.0;"/><line style="stroke: #A80036; stroke-width: 1.0;" x1="373" x2="616.5" y1="459.7891" y2="459.7891"/><text fill="#000000" font-family="sans-serif" font-size="13" lengthAdjust="spacingAndGlyphs" textLength="94" x="385" y="454.9326">Complete DBQs</text><polygon fill="#A80036" points="379,486.1406,369,490.1406,379,494.1406,375,490.1406" style="stroke: #A80036; stroke-width: 1.0;"/><line style="stroke: #A80036; stroke-width: 1.0;" x1="373" x2="616.5" y1="490.1406" y2="490.1406"/><text fill="#000000" font-family="sans-serif" font-size="13" lengthAdjust="spacingAndGlyphs" textLength="179" x="385" y="485.2842">Certifies Contentions Complete</text><!--
@startuml
actor Veteran
actor VSR
participant VBMS
participant VHA
actor "VHA Triage\nScheduling" as Triage
actor "C&P Provider" as Provider
Veteran -> VSR : Submit Claim\nContentions
VSR -> VBMS : CEST
VSR -> VBMS : Exam Tab
VBMS -> VHA : Exam Scheduling\nRequest Event (ESR)
VHA -> VBMS : ESR Ack
VHA -> Triage : ESR
Triage -> VHA : Schedule Appointment
VHA -> VBMS : Appointment\nSchedule Ack
VHA -> Provider : Exam Notification / Conduct Exam
Provider -> VHA : Complete DBQs
Provider -> VHA : Certifies Contentions Complete

@enduml

PlantUML version 1.2019.00(Sun Jan 13 10:46:42 EST 2019)
(EPL source distribution)
Java Runtime: Java(TM) SE Runtime Environment
JVM: Java HotSpot(TM) 64-Bit Server VM
Java Version: 1.8.0_112-b15
Operating System: Windows 10
OS Version: 10.0
Default Encoding: Cp1252
Language: en
Country: US
--></g></svg>