<?xml version="1.0" encoding="UTF-8" standalone="no"?><svg xmlns="http://www.w3.org/2000/svg" xmlns:xlink="http://www.w3.org/1999/xlink" contentScriptType="application/ecmascript" contentStyleType="text/css" height="50px" preserveAspectRatio="none" style="width:402px;height:50px;" version="1.1" viewBox="0 0 402 50" width="402px" zoomAndPan="magnify"><defs/><g><text fill="#000000" font-family="Serif" font-size="10" lengthAdjust="spacingAndGlyphs" textLength="5" x="5.5" y="10.4785">1</text><line style="stroke: #C0C0C0; stroke-width: 1.0;" x1="0" x2="0" y1="0" y2="48"/><text fill="#000000" font-family="Serif" font-size="10" lengthAdjust="spacingAndGlyphs" textLength="5" x="21.5" y="10.4785">2</text><line style="stroke: #C0C0C0; stroke-width: 1.0;" x1="16" x2="16" y1="0" y2="48"/><text fill="#000000" font-family="Serif" font-size="10" lengthAdjust="spacingAndGlyphs" textLength="5" x="37.5" y="10.4785">3</text><line style="stroke: #C0C0C0; stroke-width: 1.0;" x1="32" x2="32" y1="0" y2="48"/><text fill="#000000" font-family="Serif" font-size="10" lengthAdjust="spacingAndGlyphs" textLength="5" x="53.5" y="10.4785">4</text><line style="stroke: #C0C0C0; stroke-width: 1.0;" x1="48" x2="48" y1="0" y2="48"/><text fill="#000000" font-family="Serif" font-size="10" lengthAdjust="spacingAndGlyphs" textLength="5" x="69.5" y="10.4785">5</text><line style="stroke: #C0C0C0; stroke-width: 1.0;" x1="64" x2="64" y1="0" y2="48"/><text fill="#000000" font-family="Serif" font-size="10" lengthAdjust="spacingAndGlyphs" textLength="5" x="85.5" y="10.4785">6</text><line style="stroke: #C0C0C0; stroke-width: 1.0;" x1="80" x2="80" y1="0" y2="48"/><text fill="#000000" font-family="Serif" font-size="10" lengthAdjust="spacingAndGlyphs" textLength="5" x="101.5" y="10.4785">7</text><line style="stroke: #C0C0C0; stroke-width: 1.0;" x1="96" x2="96" y1="0" y2="48"/><text fill="#000000" font-family="Serif" font-size="10" lengthAdjust="spacingAndGlyphs" textLength="5" x="117.5" y="10.4785">8</text><line style="stroke: #C0C0C0; stroke-width: 1.0;" x1="112" x2="112" y1="0" y2="48"/><text fill="#000000" font-family="Serif" font-size="10" lengthAdjust="spacingAndGlyphs" textLength="5" x="133.5" y="10.4785">9</text><line style="stroke: #C0C0C0; stroke-width: 1.0;" x1="128" x2="128" y1="0" y2="48"/><text fill="#000000" font-family="Serif" font-size="10" lengthAdjust="spacingAndGlyphs" textLength="10" x="147" y="10.4785">10</text><line style="stroke: #C0C0C0; stroke-width: 1.0;" x1="144" x2="144" y1="0" y2="48"/><text fill="#000000" font-family="Serif" font-size="10" lengthAdjust="spacingAndGlyphs" textLength="10" x="163" y="10.4785">11</text><line style="stroke: #C0C0C0; stroke-width: 1.0;" x1="160" x2="160" y1="0" y2="48"/><text fill="#000000" font-family="Serif" font-size="10" lengthAdjust="spacingAndGlyphs" textLength="10" x="179" y="10.4785">12</text><line style="stroke: #C0C0C0; stroke-width: 1.0;" x1="176" x2="176" y1="0" y2="48"/><text fill="#000000" font-family="Serif" font-size="10" lengthAdjust="spacingAndGlyphs" textLength="10" x="195" y="10.4785">13</text><line style="stroke: #C0C0C0; stroke-width: 1.0;" x1="192" x2="192" y1="0" y2="48"/><text fill="#000000" font-family="Serif" font-size="10" lengthAdjust="spacingAndGlyphs" textLength="10" x="211" y="10.4785">14</text><line style="stroke: #C0C0C0; stroke-width: 1.0;" x1="208" x2="208" y1="0" y2="48"/><text fill="#000000" font-family="Serif" font-size="10" lengthAdjust="spacingAndGlyphs" textLength="10" x="227" y="10.4785">15</text><line style="stroke: #C0C0C0; stroke-width: 1.0;" x1="224" x2="224" y1="0" y2="48"/><text fill="#000000" font-family="Serif" font-size="10" lengthAdjust="spacingAndGlyphs" textLength="10" x="243" y="10.4785">16</text><line style="stroke: #C0C0C0; stroke-width: 1.0;" x1="240" x2="240" y1="0" y2="48"/><text fill="#000000" font-family="Serif" font-size="10" lengthAdjust="spacingAndGlyphs" textLength="10" x="259" y="10.4785">17</text><line style="stroke: #C0C0C0; stroke-width: 1.0;" x1="256" x2="256" y1="0" y2="48"/><text fill="#000000" font-family="Serif" font-size="10" lengthAdjust="spacingAndGlyphs" textLength="10" x="275" y="10.4785">18</text><line style="stroke: #C0C0C0; stroke-width: 1.0;" x1="272" x2="272" y1="0" y2="48"/><text fill="#000000" font-family="Serif" font-size="10" lengthAdjust="spacingAndGlyphs" textLength="10" x="291" y="10.4785">19</text><line style="stroke: #C0C0C0; stroke-width: 1.0;" x1="288" x2="288" y1="0" y2="48"/><text fill="#000000" font-family="Serif" font-size="10" lengthAdjust="spacingAndGlyphs" textLength="10" x="307" y="10.4785">20</text><line style="stroke: #C0C0C0; stroke-width: 1.0;" x1="304" x2="304" y1="0" y2="48"/><text fill="#000000" font-family="Serif" font-size="10" lengthAdjust="spacingAndGlyphs" textLength="10" x="323" y="10.4785">21</text><line style="stroke: #C0C0C0; stroke-width: 1.0;" x1="320" x2="320" y1="0" y2="48"/><text fill="#000000" font-family="Serif" font-size="10" lengthAdjust="spacingAndGlyphs" textLength="10" x="339" y="10.4785">22</text><line style="stroke: #C0C0C0; stroke-width: 1.0;" x1="336" x2="336" y1="0" y2="48"/><text fill="#000000" font-family="Serif" font-size="10" lengthAdjust="spacingAndGlyphs" textLength="10" x="355" y="10.4785">23</text><line style="stroke: #C0C0C0; stroke-width: 1.0;" x1="352" x2="352" y1="0" y2="48"/><text fill="#000000" font-family="Serif" font-size="10" lengthAdjust="spacingAndGlyphs" textLength="10" x="371" y="10.4785">24</text><line style="stroke: #C0C0C0; stroke-width: 1.0;" x1="368" x2="368" y1="0" y2="48"/><text fill="#000000" font-family="Serif" font-size="10" lengthAdjust="spacingAndGlyphs" textLength="10" x="387" y="10.4785">25</text><line style="stroke: #C0C0C0; stroke-width: 1.0;" x1="384" x2="384" y1="0" y2="48"/><line style="stroke: #C0C0C0; stroke-width: 1.0;" x1="400" x2="400" y1="0" y2="48"/><line style="stroke: #C0C0C0; stroke-width: 1.0;" x1="0" x2="400" y1="0" y2="0"/><line style="stroke: #C0C0C0; stroke-width: 1.0;" x1="0" x2="400" y1="13" y2="13"/><rect fill="#FFFFFF" height="12" rx="4" ry="4" style="stroke: #FFFFFF; stroke-width: 1.0;" width="236" x="2" y="18"/><rect fill="#84BE84" height="12" style="stroke: none; stroke-width: 1.0;" width="16" x="0" y="18"/><rect fill="#84BE84" height="12" style="stroke: none; stroke-width: 1.0;" width="16" x="16" y="18"/><rect fill="#84BE84" height="12" style="stroke: none; stroke-width: 1.0;" width="16" x="32" y="18"/><rect fill="#84BE84" height="12" style="stroke: none; stroke-width: 1.0;" width="16" x="48" y="18"/><rect fill="#84BE84" height="12" style="stroke: none; stroke-width: 1.0;" width="16" x="64" y="18"/><rect fill="#84BE84" height="12" style="stroke: none; stroke-width: 1.0;" width="16" x="80" y="18"/><rect fill="#84BE84" height="12" style="stroke: none; stroke-width: 1.0;" width="16" x="96" y="18"/><rect fill="#84BE84" height="12" style="stroke: none; stroke-width: 1.0;" width="16" x="112" y="18"/><rect fill="#84BE84" height="12" style="stroke: none; stroke-width: 1.0;" width="16" x="128" y="18"/><rect fill="#84BE84" height="12" style="stroke: none; stroke-width: 1.0;" width="16" x="144" y="18"/><rect fill="#84BE84" height="12" style="stroke: none; stroke-width: 1.0;" width="16" x="160" y="18"/><rect fill="#84BE84" height="12" style="stroke: none; stroke-width: 1.0;" width="16" x="176" y="18"/><rect fill="#84BE84" height="12" style="stroke: none; stroke-width: 1.0;" width="16" x="192" y="18"/><rect fill="#84BE84" height="12" style="stroke: none; stroke-width: 1.0;" width="16" x="208" y="18"/><rect fill="#84BE84" height="12" style="stroke: none; stroke-width: 1.0;" width="16" x="224" y="18"/><rect fill="none" height="12" rx="4" ry="4" style="stroke: #0000FF; stroke-width: 1.0;" width="236" x="2" y="18"/><text fill="#000000" font-family="Serif" font-size="11" lengthAdjust="spacingAndGlyphs" textLength="79" x="16" y="27.5264">Prototype design</text><rect fill="#FFFFFF" height="12" rx="4" ry="4" style="stroke: #FFFFFF; stroke-width: 1.0;" width="156" x="242" y="34"/><rect fill="#84BE84" height="12" style="stroke: none; stroke-width: 1.0;" width="16" x="240" y="34"/><rect fill="#84BE84" height="12" style="stroke: none; stroke-width: 1.0;" width="16" x="256" y="34"/><rect fill="#84BE84" height="12" style="stroke: none; stroke-width: 1.0;" width="16" x="272" y="34"/><rect fill="#84BE84" height="12" style="stroke: none; stroke-width: 1.0;" width="16" x="288" y="34"/><rect fill="#84BE84" height="12" style="stroke: none; stroke-width: 1.0;" width="16" x="304" y="34"/><rect fill="#84BE84" height="12" style="stroke: none; stroke-width: 1.0;" width="16" x="320" y="34"/><rect fill="#84BE84" height="12" style="stroke: none; stroke-width: 1.0;" width="16" x="336" y="34"/><rect fill="#84BE84" height="12" style="stroke: none; stroke-width: 1.0;" width="16" x="352" y="34"/><rect fill="#84BE84" height="12" style="stroke: none; stroke-width: 1.0;" width="16" x="368" y="34"/><rect fill="#84BE84" height="12" style="stroke: none; stroke-width: 1.0;" width="16" x="384" y="34"/><rect fill="none" height="12" rx="4" ry="4" style="stroke: #0000FF; stroke-width: 1.0;" width="156" x="242" y="34"/><text fill="#000000" font-family="Serif" font-size="11" lengthAdjust="spacingAndGlyphs" textLength="71" x="256" y="43.5264">Test prototype</text><line style="stroke: #CD0A0A; stroke-width: 1.5;" x1="232" x2="232" y1="32" y2="40"/><line style="stroke: #CD0A0A; stroke-width: 1.5;" x1="232" x2="240" y1="40" y2="40"/><polygon fill="#CD0A0A" points="236,36,236,40,236,44,240,40" style="stroke: #CD0A0A; stroke-width: 1.5;"/><!--
--></g></svg>