<?xml version="1.0" encoding="UTF-8" standalone="no"?><svg xmlns="http://www.w3.org/2000/svg" xmlns:xlink="http://www.w3.org/1999/xlink" contentScriptType="application/ecmascript" contentStyleType="text/css" height="1056px" preserveAspectRatio="none" style="width:1695px;height:1056px;" version="1.1" viewBox="0 0 1695 1056" width="1695px" zoomAndPan="magnify"><defs><filter height="300%" id="f16rf59t3b4qva" width="300%" x="-1" y="-1"><feGaussianBlur result="blurOut" stdDeviation="2.0"/><feColorMatrix in="blurOut" result="blurOut2" type="matrix" values="0 0 0 0 0 0 0 0 0 0 0 0 0 0 0 0 0 0 .4 0"/><feOffset dx="4.0" dy="4.0" in="blurOut2" result="blurOut3"/><feBlend in="SourceGraphic" in2="blurOut3" mode="normal"/></filter></defs><g><line style="stroke: #A80036; stroke-width: 1.0; stroke-dasharray: 5.0,5.0;" x1="149" x2="149" y1="110.0469" y2="944.5391"/><line style="stroke: #A80036; stroke-width: 1.0; stroke-dasharray: 5.0,5.0;" x1="251" x2="251" y1="110.0469" y2="944.5391"/><line style="stroke: #A80036; stroke-width: 1.0; stroke-dasharray: 5.0,5.0;" x1="332" x2="332" y1="110.0469" y2="944.5391"/><line style="stroke: #A80036; stroke-width: 1.0; stroke-dasharray: 5.0,5.0;" x1="573.5" x2="573.5" y1="110.0469" y2="944.5391"/><line style="stroke: #A80036; stroke-width: 1.0; stroke-dasharray: 5.0,5.0;" x1="817.5" x2="817.5" y1="110.0469" y2="944.5391"/><line style="stroke: #A80036; stroke-width: 1.0; stroke-dasharray: 5.0,5.0;" x1="1019.5" x2="1019.5" y1="110.0469" y2="944.5391"/><line style="stroke: #A80036; stroke-width: 1.0; stroke-dasharray: 5.0,5.0;" x1="1219.5" x2="1219.5" y1="110.0469" y2="944.5391"/><line style="stroke: #A80036; stroke-width: 1.0; stroke-dasharray: 5.0,5.0;" x1="1394.5" x2="1394.5" y1="110.0469" y2="944.5391"/><line style="stroke: #A80036; stroke-width: 1.0; stroke-dasharray: 5.0,5.0;" x1="1543.5" x2="1543.5" y1="110.0469" y2="944.5391"/><line style="stroke: #A80036; stroke-width: 1.0; stroke-dasharray: 5.0,5.0;" x1="1659.5" x2="1659.5" y1="110.0469" y2="944.5391"/><rect fill="#FEFECE" filter="url(#f16rf59t3b4qva)" height="31.6094" style="stroke: #A80036; stroke-width: 1.5;" width="64" x="115" y="73.4375"/><text fill="#000000" font-family="sans-serif" font-size="14" lengthAdjust="spacingAndGlyphs" textLength="50" x="122" y="94.9707">Veteran</text><rect fill="#FEFECE" filter="url(#f16rf59t3b4qva)" height="31.6094" style="stroke: #A80036; stroke-width: 1.5;" width="64" x="115" y="943.5391"/><text fill="#000000" font-family="sans-serif" font-size="14" lengthAdjust="spacingAndGlyphs" textLength="50" x="122" y="965.0723">Veteran</text><text fill="#000000" font-family="sans-serif" font-size="14" lengthAdjust="spacingAndGlyphs" textLength="28" x="234" y="106.9707">VSR</text><ellipse cx="251" cy="35.4375" fill="#FEFECE" filter="url(#f16rf59t3b4qva)" rx="8" ry="8" style="stroke: #A80036; stroke-width: 2.0;"/><path d="M251,43.4375 L251,70.4375 M238,51.4375 L264,51.4375 M251,70.4375 L238,85.4375 M251,70.4375 L264,85.4375 " fill="none" filter="url(#f16rf59t3b4qva)" style="stroke: #A80036; stroke-width: 2.0;"/><text fill="#000000" font-family="sans-serif" font-size="14" lengthAdjust="spacingAndGlyphs" textLength="28" x="234" y="958.0723">VSR</text><ellipse cx="251" cy="971.1484" fill="#FEFECE" filter="url(#f16rf59t3b4qva)" rx="8" ry="8" style="stroke: #A80036; stroke-width: 2.0;"/><path d="M251,979.1484 L251,1006.1484 M238,987.1484 L264,987.1484 M251,1006.1484 L238,1021.1484 M251,1006.1484 L264,1021.1484 " fill="none" filter="url(#f16rf59t3b4qva)" style="stroke: #A80036; stroke-width: 2.0;"/><rect fill="#FEFECE" filter="url(#f16rf59t3b4qva)" height="84.4375" style="stroke: #A80036; stroke-width: 1.5;" width="105" x="278" y="20.6094"/><text fill="#000000" font-family="sans-serif" font-size="14" lengthAdjust="spacingAndGlyphs" textLength="46" x="307.5" y="42.1426">[VBMS]</text><text fill="#000000" font-family="sans-serif" font-size="14" lengthAdjust="spacingAndGlyphs" textLength="27" x="317" y="59.752">VBA</text><text fill="#000000" font-family="sans-serif" font-size="14" lengthAdjust="spacingAndGlyphs" textLength="91" x="285" y="77.3613">Compensation</text><text fill="#000000" font-family="sans-serif" font-size="14" lengthAdjust="spacingAndGlyphs" textLength="35" x="313" y="94.9707">Claim</text><rect fill="#FEFECE" filter="url(#f16rf59t3b4qva)" height="84.4375" style="stroke: #A80036; stroke-width: 1.5;" width="105" x="278" y="943.5391"/><text fill="#000000" font-family="sans-serif" font-size="14" lengthAdjust="spacingAndGlyphs" textLength="46" x="307.5" y="965.0723">[VBMS]</text><text fill="#000000" font-family="sans-serif" font-size="14" lengthAdjust="spacingAndGlyphs" textLength="27" x="317" y="982.6816">VBA</text><text fill="#000000" font-family="sans-serif" font-size="14" lengthAdjust="spacingAndGlyphs" textLength="91" x="285" y="1000.291">Compensation</text><text fill="#000000" font-family="sans-serif" font-size="14" lengthAdjust="spacingAndGlyphs" textLength="35" x="313" y="1017.9004">Claim</text><rect fill="#FEFECE" filter="url(#f16rf59t3b4qva)" height="31.6094" style="stroke: #A80036; stroke-width: 1.5;" width="50" x="546.5" y="73.4375"/><text fill="#000000" font-family="sans-serif" font-size="14" lengthAdjust="spacingAndGlyphs" textLength="36" x="553.5" y="94.9707">[DAS]</text><rect fill="#FEFECE" filter="url(#f16rf59t3b4qva)" height="31.6094" style="stroke: #A80036; stroke-width: 1.5;" width="50" x="546.5" y="943.5391"/><text fill="#000000" font-family="sans-serif" font-size="14" lengthAdjust="spacingAndGlyphs" textLength="36" x="553.5" y="965.0723">[DAS]</text><rect fill="#FEFECE" filter="url(#f16rf59t3b4qva)" height="102.0469" style="stroke: #A80036; stroke-width: 1.5;" width="122" x="754.5" y="3"/><text fill="#000000" font-family="sans-serif" font-size="14" lengthAdjust="spacingAndGlyphs" textLength="108" x="761.5" y="24.5332">[Cerner Orders1]</text><text fill="#000000" font-family="sans-serif" font-size="14" lengthAdjust="spacingAndGlyphs" textLength="27" x="802" y="42.1426">VBA</text><text fill="#000000" font-family="sans-serif" font-size="14" lengthAdjust="spacingAndGlyphs" textLength="50" x="790.5" y="59.752">Generic</text><text fill="#000000" font-family="sans-serif" font-size="14" lengthAdjust="spacingAndGlyphs" textLength="69" x="781" y="77.3613">Encounter/</text><text fill="#000000" font-family="sans-serif" font-size="14" lengthAdjust="spacingAndGlyphs" textLength="37" x="797" y="94.9707">Order</text><rect fill="#FEFECE" filter="url(#f16rf59t3b4qva)" height="102.0469" style="stroke: #A80036; stroke-width: 1.5;" width="122" x="754.5" y="943.5391"/><text fill="#000000" font-family="sans-serif" font-size="14" lengthAdjust="spacingAndGlyphs" textLength="108" x="761.5" y="965.0723">[Cerner Orders1]</text><text fill="#000000" font-family="sans-serif" font-size="14" lengthAdjust="spacingAndGlyphs" textLength="27" x="802" y="982.6816">VBA</text><text fill="#000000" font-family="sans-serif" font-size="14" lengthAdjust="spacingAndGlyphs" textLength="50" x="790.5" y="1000.291">Generic</text><text fill="#000000" font-family="sans-serif" font-size="14" lengthAdjust="spacingAndGlyphs" textLength="69" x="781" y="1017.9004">Encounter/</text><text fill="#000000" font-family="sans-serif" font-size="14" lengthAdjust="spacingAndGlyphs" textLength="37" x="797" y="1035.5098">Order</text><text fill="#000000" font-family="sans-serif" font-size="14" lengthAdjust="spacingAndGlyphs" textLength="72" x="980.5" y="89.3613">VHA Triage</text><text fill="#000000" font-family="sans-serif" font-size="14" lengthAdjust="spacingAndGlyphs" textLength="70" x="981.5" y="106.9707">Scheduling</text><ellipse cx="1019.5" cy="17.8281" fill="#FEFECE" filter="url(#f16rf59t3b4qva)" rx="8" ry="8" style="stroke: #A80036; stroke-width: 2.0;"/><path d="M1019.5,25.8281 L1019.5,52.8281 M1006.5,33.8281 L1032.5,33.8281 M1019.5,52.8281 L1006.5,67.8281 M1019.5,52.8281 L1032.5,67.8281 " fill="none" filter="url(#f16rf59t3b4qva)" style="stroke: #A80036; stroke-width: 2.0;"/><text fill="#000000" font-family="sans-serif" font-size="14" lengthAdjust="spacingAndGlyphs" textLength="72" x="980.5" y="958.0723">VHA Triage</text><text fill="#000000" font-family="sans-serif" font-size="14" lengthAdjust="spacingAndGlyphs" textLength="70" x="981.5" y="975.6816">Scheduling</text><ellipse cx="1019.5" cy="988.7578" fill="#FEFECE" filter="url(#f16rf59t3b4qva)" rx="8" ry="8" style="stroke: #A80036; stroke-width: 2.0;"/><path d="M1019.5,996.7578 L1019.5,1023.7578 M1006.5,1004.7578 L1032.5,1004.7578 M1019.5,1023.7578 L1006.5,1038.7578 M1019.5,1023.7578 L1032.5,1038.7578 " fill="none" filter="url(#f16rf59t3b4qva)" style="stroke: #A80036; stroke-width: 2.0;"/><rect fill="#FEFECE" filter="url(#f16rf59t3b4qva)" height="84.4375" style="stroke: #A80036; stroke-width: 1.5;" width="122" x="1156.5" y="20.6094"/><text fill="#000000" font-family="sans-serif" font-size="14" lengthAdjust="spacingAndGlyphs" textLength="108" x="1163.5" y="42.1426">[Cerner Orders2]</text><text fill="#000000" font-family="sans-serif" font-size="14" lengthAdjust="spacingAndGlyphs" textLength="27" x="1204" y="59.752">VHA</text><text fill="#000000" font-family="sans-serif" font-size="14" lengthAdjust="spacingAndGlyphs" textLength="32" x="1201.5" y="77.3613">Child</text><text fill="#000000" font-family="sans-serif" font-size="14" lengthAdjust="spacingAndGlyphs" textLength="37" x="1199" y="94.9707">Order</text><rect fill="#FEFECE" filter="url(#f16rf59t3b4qva)" height="84.4375" style="stroke: #A80036; stroke-width: 1.5;" width="122" x="1156.5" y="943.5391"/><text fill="#000000" font-family="sans-serif" font-size="14" lengthAdjust="spacingAndGlyphs" textLength="108" x="1163.5" y="965.0723">[Cerner Orders2]</text><text fill="#000000" font-family="sans-serif" font-size="14" lengthAdjust="spacingAndGlyphs" textLength="27" x="1204" y="982.6816">VHA</text><text fill="#000000" font-family="sans-serif" font-size="14" lengthAdjust="spacingAndGlyphs" textLength="32" x="1201.5" y="1000.291">Child</text><text fill="#000000" font-family="sans-serif" font-size="14" lengthAdjust="spacingAndGlyphs" textLength="37" x="1199" y="1017.9004">Order</text><rect fill="#FEFECE" filter="url(#f16rf59t3b4qva)" height="66.8281" style="stroke: #A80036; stroke-width: 1.5;" width="122" x="1331.5" y="38.2188"/><text fill="#000000" font-family="sans-serif" font-size="14" lengthAdjust="spacingAndGlyphs" textLength="108" x="1338.5" y="59.752">[Cerner Orders3]</text><text fill="#000000" font-family="sans-serif" font-size="14" lengthAdjust="spacingAndGlyphs" textLength="27" x="1379" y="77.3613">VHA</text><text fill="#000000" font-family="sans-serif" font-size="14" lengthAdjust="spacingAndGlyphs" textLength="79" x="1353" y="94.9707">Appointment</text><rect fill="#FEFECE" filter="url(#f16rf59t3b4qva)" height="66.8281" style="stroke: #A80036; stroke-width: 1.5;" width="122" x="1331.5" y="943.5391"/><text fill="#000000" font-family="sans-serif" font-size="14" lengthAdjust="spacingAndGlyphs" textLength="108" x="1338.5" y="965.0723">[Cerner Orders3]</text><text fill="#000000" font-family="sans-serif" font-size="14" lengthAdjust="spacingAndGlyphs" textLength="27" x="1379" y="982.6816">VHA</text><text fill="#000000" font-family="sans-serif" font-size="14" lengthAdjust="spacingAndGlyphs" textLength="79" x="1353" y="1000.291">Appointment</text><rect fill="#FEFECE" filter="url(#f16rf59t3b4qva)" height="49.2188" style="stroke: #A80036; stroke-width: 1.5;" width="149" x="1467.5" y="55.8281"/><text fill="#000000" font-family="sans-serif" font-size="14" lengthAdjust="spacingAndGlyphs" textLength="135" x="1474.5" y="77.3613">[Cerner PowerForms]</text><text fill="#000000" font-family="sans-serif" font-size="14" lengthAdjust="spacingAndGlyphs" textLength="30" x="1527" y="94.9707">DBQ</text><rect fill="#FEFECE" filter="url(#f16rf59t3b4qva)" height="49.2188" style="stroke: #A80036; stroke-width: 1.5;" width="149" x="1467.5" y="943.5391"/><text fill="#000000" font-family="sans-serif" font-size="14" lengthAdjust="spacingAndGlyphs" textLength="135" x="1474.5" y="965.0723">[Cerner PowerForms]</text><text fill="#000000" font-family="sans-serif" font-size="14" lengthAdjust="spacingAndGlyphs" textLength="30" x="1527" y="982.6816">DBQ</text><text fill="#000000" font-family="sans-serif" font-size="14" lengthAdjust="spacingAndGlyphs" textLength="53" x="1630.5" y="106.9707">Clinician</text><ellipse cx="1660" cy="35.4375" fill="#FEFECE" filter="url(#f16rf59t3b4qva)" rx="8" ry="8" style="stroke: #A80036; stroke-width: 2.0;"/><path d="M1660,43.4375 L1660,70.4375 M1647,51.4375 L1673,51.4375 M1660,70.4375 L1647,85.4375 M1660,70.4375 L1673,85.4375 " fill="none" filter="url(#f16rf59t3b4qva)" style="stroke: #A80036; stroke-width: 2.0;"/><text fill="#000000" font-family="sans-serif" font-size="14" lengthAdjust="spacingAndGlyphs" textLength="53" x="1630.5" y="958.0723">Clinician</text><ellipse cx="1660" cy="971.1484" fill="#FEFECE" filter="url(#f16rf59t3b4qva)" rx="8" ry="8" style="stroke: #A80036; stroke-width: 2.0;"/><path d="M1660,979.1484 L1660,1006.1484 M1647,987.1484 L1673,987.1484 M1660,1006.1484 L1647,1021.1484 M1660,1006.1484 L1673,1021.1484 " fill="none" filter="url(#f16rf59t3b4qva)" style="stroke: #A80036; stroke-width: 2.0;"/><path d="M8,125.0469 L8,151.0469 L140,151.0469 L140,135.0469 L130,125.0469 L8,125.0469 " fill="#FBFB77" filter="url(#f16rf59t3b4qva)" style="stroke: #A80036; stroke-width: 1.0;"/><path d="M130,125.0469 L130,135.0469 L140,135.0469 L130,125.0469 " fill="#FBFB77" style="stroke: #A80036; stroke-width: 1.0;"/><text fill="#000000" font-family="sans-serif" font-size="13" lengthAdjust="spacingAndGlyphs" textLength="111" x="14" y="143.542">Version 20191001a</text><polygon fill="#A80036" points="239,195.1016,249,199.1016,239,203.1016,243,199.1016" style="stroke: #A80036; stroke-width: 1.0;"/><line style="stroke: #A80036; stroke-width: 1.0;" x1="149" x2="245" y1="199.1016" y2="199.1016"/><text fill="#000000" font-family="sans-serif" font-size="13" lengthAdjust="spacingAndGlyphs" textLength="78" x="156" y="177.8936">Submit Claim</text><text fill="#000000" font-family="sans-serif" font-size="13" lengthAdjust="spacingAndGlyphs" textLength="69" x="156" y="194.2451">Contentions</text><polygon fill="#A80036" points="320.5,225.4531,330.5,229.4531,320.5,233.4531,324.5,229.4531" style="stroke: #A80036; stroke-width: 1.0;"/><line style="stroke: #A80036; stroke-width: 1.0;" x1="251" x2="326.5" y1="229.4531" y2="229.4531"/><text fill="#000000" font-family="sans-serif" font-size="13" lengthAdjust="spacingAndGlyphs" textLength="34" x="258" y="224.5967">CEST</text><polygon fill="#A80036" points="561.5,255.8047,571.5,259.8047,561.5,263.8047,565.5,259.8047" style="stroke: #A80036; stroke-width: 1.0;"/><line style="stroke: #A80036; stroke-width: 1.0;" x1="332.5" x2="567.5" y1="259.8047" y2="259.8047"/><text fill="#000000" font-family="sans-serif" font-size="13" lengthAdjust="spacingAndGlyphs" textLength="160" x="339.5" y="254.9482">Create Generic Order [XML]</text><polygon fill="#A80036" points="805.5,286.1563,815.5,290.1563,805.5,294.1563,809.5,290.1563" style="stroke: #A80036; stroke-width: 1.0;"/><line style="stroke: #A80036; stroke-width: 1.0;" x1="573.5" x2="811.5" y1="290.1563" y2="290.1563"/><text fill="#000000" font-family="sans-serif" font-size="13" lengthAdjust="spacingAndGlyphs" textLength="165" x="580.5" y="285.2998">Create Generic Order [ORM]</text><ellipse cx="573" cy="319.7578" fill="none" rx="4" ry="4" style="stroke: #A80036; stroke-width: 1.5;"/><polygon fill="#A80036" points="590,316.5078,580,320.5078,590,324.5078,586,320.5078" style="stroke: #A80036; stroke-width: 1.0;"/><ellipse cx="817" cy="319.7578" fill="none" rx="4" ry="4" style="stroke: #A80036; stroke-width: 1.5;"/><line style="stroke: #A80036; stroke-width: 1.0;" x1="588" x2="812.5" y1="320.5078" y2="320.5078"/><text fill="#000000" font-family="sans-serif" font-size="13" lengthAdjust="spacingAndGlyphs" textLength="220" x="590.5" y="315.6514">Generic Order Created (Status) [ORR]</text><ellipse cx="332" cy="350.1094" fill="none" rx="4" ry="4" style="stroke: #A80036; stroke-width: 1.5;"/><polygon fill="#A80036" points="349,346.8594,339,350.8594,349,354.8594,345,350.8594" style="stroke: #A80036; stroke-width: 1.0;"/><ellipse cx="573" cy="350.1094" fill="none" rx="4" ry="4" style="stroke: #A80036; stroke-width: 1.5;"/><line style="stroke: #A80036; stroke-width: 1.0;" x1="347" x2="568.5" y1="350.8594" y2="350.8594"/><text fill="#000000" font-family="sans-serif" font-size="13" lengthAdjust="spacingAndGlyphs" textLength="217" x="349.5" y="346.0029">Generic Order Created (Status) [XML]</text><polygon fill="#A80036" points="828.5,393.5625,818.5,397.5625,828.5,401.5625,824.5,397.5625" style="stroke: #A80036; stroke-width: 1.0;"/><line style="stroke: #A80036; stroke-width: 1.0;" x1="822.5" x2="1018.5" y1="397.5625" y2="397.5625"/><text fill="#000000" font-family="sans-serif" font-size="13" lengthAdjust="spacingAndGlyphs" textLength="130" x="834.5" y="376.3545">Retrieve Ready Orders</text><text fill="#000000" font-family="sans-serif" font-size="13" lengthAdjust="spacingAndGlyphs" textLength="178" x="834.5" y="392.7061">from Message Center (Internal)</text><polygon fill="#A80036" points="1007.5,423.9141,1017.5,427.9141,1007.5,431.9141,1011.5,427.9141" style="stroke: #A80036; stroke-width: 1.0;"/><line style="stroke: #A80036; stroke-width: 1.0;" x1="817.5" x2="1013.5" y1="427.9141" y2="427.9141"/><text fill="#000000" font-family="sans-serif" font-size="13" lengthAdjust="spacingAndGlyphs" textLength="160" x="824.5" y="423.0576">Get Generic Order (Internal)</text><polygon fill="#A80036" points="1207.5,454.2656,1217.5,458.2656,1207.5,462.2656,1211.5,458.2656" style="stroke: #A80036; stroke-width: 1.0;"/><line style="stroke: #A80036; stroke-width: 1.0;" x1="1019.5" x2="1213.5" y1="458.2656" y2="458.2656"/><text fill="#000000" font-family="sans-serif" font-size="13" lengthAdjust="spacingAndGlyphs" textLength="176" x="1026.5" y="453.4092">Create Child Order(s) (Internal)</text><ellipse cx="573" cy="487.8672" fill="none" rx="4" ry="4" style="stroke: #A80036; stroke-width: 1.5;"/><polygon fill="#A80036" points="590,484.6172,580,488.6172,590,492.6172,586,488.6172" style="stroke: #A80036; stroke-width: 1.0;"/><ellipse cx="1219" cy="487.8672" fill="none" rx="4" ry="4" style="stroke: #A80036; stroke-width: 1.5;"/><line style="stroke: #A80036; stroke-width: 1.0;" x1="588" x2="1214.5" y1="488.6172" y2="488.6172"/><text fill="#000000" font-family="sans-serif" font-size="13" lengthAdjust="spacingAndGlyphs" textLength="219" x="590.5" y="483.7607">Child Order(s) Created (Status) [ORR]</text><line style="stroke: #A80036; stroke-width: 1.0;" x1="1219.5" x2="1261.5" y1="518.9688" y2="518.9688"/><line style="stroke: #A80036; stroke-width: 1.0;" x1="1261.5" x2="1261.5" y1="518.9688" y2="531.9688"/><line style="stroke: #A80036; stroke-width: 1.0;" x1="1220.5" x2="1261.5" y1="531.9688" y2="531.9688"/><polygon fill="#A80036" points="1230.5,527.9688,1220.5,531.9688,1230.5,535.9688,1226.5,531.9688" style="stroke: #A80036; stroke-width: 1.0;"/><text fill="#000000" font-family="sans-serif" font-size="13" lengthAdjust="spacingAndGlyphs" textLength="161" x="1226.5" y="514.1123">CCL Group Orders (Internal)</text><polygon fill="#A80036" points="1382.5,558.3203,1392.5,562.3203,1382.5,566.3203,1386.5,562.3203" style="stroke: #A80036; stroke-width: 1.0;"/><line style="stroke: #A80036; stroke-width: 1.0;" x1="1019.5" x2="1388.5" y1="562.3203" y2="562.3203"/><text fill="#000000" font-family="sans-serif" font-size="13" lengthAdjust="spacingAndGlyphs" textLength="220" x="1026.5" y="557.4639">Create Order Appiontment(s) (Internal)</text><ellipse cx="573" cy="591.9219" fill="none" rx="4" ry="4" style="stroke: #A80036; stroke-width: 1.5;"/><polygon fill="#A80036" points="590,588.6719,580,592.6719,590,596.6719,586,592.6719" style="stroke: #A80036; stroke-width: 1.0;"/><ellipse cx="1394" cy="591.9219" fill="none" rx="4" ry="4" style="stroke: #A80036; stroke-width: 1.5;"/><line style="stroke: #A80036; stroke-width: 1.0;" x1="588" x2="1389.5" y1="592.6719" y2="592.6719"/><text fill="#000000" font-family="sans-serif" font-size="13" lengthAdjust="spacingAndGlyphs" textLength="205" x="590.5" y="587.8154">Appointment Created (Status) [SIU]</text><ellipse cx="332" cy="622.2734" fill="none" rx="4" ry="4" style="stroke: #A80036; stroke-width: 1.5;"/><polygon fill="#A80036" points="349,619.0234,339,623.0234,349,627.0234,345,623.0234" style="stroke: #A80036; stroke-width: 1.0;"/><ellipse cx="573" cy="622.2734" fill="none" rx="4" ry="4" style="stroke: #A80036; stroke-width: 1.5;"/><line style="stroke: #A80036; stroke-width: 1.0;" x1="347" x2="568.5" y1="623.0234" y2="623.0234"/><text fill="#000000" font-family="sans-serif" font-size="13" lengthAdjust="spacingAndGlyphs" textLength="209" x="349.5" y="618.167">Appointment Created (Status) [XML]</text><polygon fill="#A80036" points="1405.5,649.375,1395.5,653.375,1405.5,657.375,1401.5,653.375" style="stroke: #A80036; stroke-width: 1.0;"/><line style="stroke: #A80036; stroke-width: 1.0;" x1="1399.5" x2="1659" y1="653.375" y2="653.375"/><text fill="#000000" font-family="sans-serif" font-size="13" lengthAdjust="spacingAndGlyphs" textLength="184" x="1411.5" y="648.5186">Retrieve Appointments (Internal)</text><polygon fill="#A80036" points="1648,679.7266,1658,683.7266,1648,687.7266,1652,683.7266" style="stroke: #A80036; stroke-width: 1.0;"/><line style="stroke: #A80036; stroke-width: 1.0;" x1="1394.5" x2="1654" y1="683.7266" y2="683.7266"/><text fill="#000000" font-family="sans-serif" font-size="13" lengthAdjust="spacingAndGlyphs" textLength="150" x="1401.5" y="678.8701">Retrieved Orders (Internal)</text><polygon fill="#A80036" points="1648,710.0781,1658,714.0781,1648,718.0781,1652,714.0781" style="stroke: #A80036; stroke-width: 1.0;"/><line style="stroke: #A80036; stroke-width: 1.0;" x1="149" x2="1654" y1="714.0781" y2="714.0781"/><text fill="#000000" font-family="sans-serif" font-size="13" lengthAdjust="spacingAndGlyphs" textLength="101" x="156" y="709.2217">Veteran Presents</text><polygon fill="#A80036" points="160,740.4297,150,744.4297,160,748.4297,156,744.4297" style="stroke: #A80036; stroke-width: 1.0;"/><line style="stroke: #A80036; stroke-width: 1.0;" x1="154" x2="1659" y1="744.4297" y2="744.4297"/><text fill="#000000" font-family="sans-serif" font-size="13" lengthAdjust="spacingAndGlyphs" textLength="83" x="166" y="739.5732">Perform Exam</text><polygon fill="#A80036" points="1555,770.7813,1545,774.7813,1555,778.7813,1551,774.7813" style="stroke: #A80036; stroke-width: 1.0;"/><line style="stroke: #A80036; stroke-width: 1.0;" x1="1549" x2="1659" y1="774.7813" y2="774.7813"/><text fill="#000000" font-family="sans-serif" font-size="13" lengthAdjust="spacingAndGlyphs" textLength="87" x="1561" y="769.9248">Complete DBQ</text><polygon fill="#A80036" points="1405.5,801.1328,1395.5,805.1328,1405.5,809.1328,1401.5,805.1328" style="stroke: #A80036; stroke-width: 1.0;"/><line style="stroke: #A80036; stroke-width: 1.0;" x1="1399.5" x2="1659" y1="805.1328" y2="805.1328"/><text fill="#000000" font-family="sans-serif" font-size="13" lengthAdjust="spacingAndGlyphs" textLength="110" x="1411.5" y="800.2764">Close Appointment</text><ellipse cx="573" cy="834.7344" fill="none" rx="4" ry="4" style="stroke: #A80036; stroke-width: 1.5;"/><polygon fill="#A80036" points="590,831.4844,580,835.4844,590,839.4844,586,835.4844" style="stroke: #A80036; stroke-width: 1.0;"/><ellipse cx="1394" cy="834.7344" fill="none" rx="4" ry="4" style="stroke: #A80036; stroke-width: 1.5;"/><line style="stroke: #A80036; stroke-width: 1.0;" x1="588" x2="1389.5" y1="835.4844" y2="835.4844"/><text fill="#000000" font-family="sans-serif" font-size="13" lengthAdjust="spacingAndGlyphs" textLength="201" x="590.5" y="830.6279">Close Order (Status) [ORM / ORR]</text><ellipse cx="332" cy="865.0859" fill="none" rx="4" ry="4" style="stroke: #A80036; stroke-width: 1.5;"/><polygon fill="#A80036" points="349,861.8359,339,865.8359,349,869.8359,345,865.8359" style="stroke: #A80036; stroke-width: 1.0;"/><ellipse cx="573" cy="865.0859" fill="none" rx="4" ry="4" style="stroke: #A80036; stroke-width: 1.5;"/><line style="stroke: #A80036; stroke-width: 1.0;" x1="347" x2="568.5" y1="865.8359" y2="865.8359"/><text fill="#000000" font-family="sans-serif" font-size="13" lengthAdjust="spacingAndGlyphs" textLength="156" x="349.5" y="860.9795">Close Order (Status) [XML]</text><ellipse cx="573" cy="895.4375" fill="none" rx="4" ry="4" style="stroke: #A80036; stroke-width: 1.5;"/><polygon fill="#A80036" points="590,892.1875,580,896.1875,590,900.1875,586,896.1875" style="stroke: #A80036; stroke-width: 1.0;"/><ellipse cx="1543.5" cy="895.4375" fill="none" rx="4" ry="4" style="stroke: #A80036; stroke-width: 1.5;"/><line style="stroke: #A80036; stroke-width: 1.0;" x1="588" x2="1539" y1="896.1875" y2="896.1875"/><text fill="#000000" font-family="sans-serif" font-size="13" lengthAdjust="spacingAndGlyphs" textLength="144" x="590.5" y="891.3311">Send DBQ [ORM / ORR]</text><ellipse cx="332" cy="925.7891" fill="none" rx="4" ry="4" style="stroke: #A80036; stroke-width: 1.5;"/><polygon fill="#A80036" points="349,922.5391,339,926.5391,349,930.5391,345,926.5391" style="stroke: #A80036; stroke-width: 1.0;"/><ellipse cx="573" cy="925.7891" fill="none" rx="4" ry="4" style="stroke: #A80036; stroke-width: 1.5;"/><line style="stroke: #A80036; stroke-width: 1.0;" x1="347" x2="568.5" y1="926.5391" y2="926.5391"/><text fill="#000000" font-family="sans-serif" font-size="13" lengthAdjust="spacingAndGlyphs" textLength="88" x="349.5" y="921.6826">Update eFolder</text><!--
@startuml
note left of Veteran
Version 20191001a
end note
actor Veteran
actor VSR
participant "[VBMS]\nVBA\nCompensation\nClaim" as VBMS
participant "[DAS]" as DAS
participant "[Cerner Orders1]\nVBA\nGeneric\nEncounter/\nOrder" as CernerOrders1
actor "VHA Triage\nScheduling" as Triage
participant "[Cerner Orders2]\nVHA\nChild\nOrder" as CernerOrders2
participant "[Cerner Orders3]\nVHA\nAppointment" as CernerOrders3
participant "[Cerner PowerForms]\nDBQ" as DBQ
actor Clinician
Veteran -> VSR :                  Submit Claim\nContentions
VSR -> VBMS :                     CEST
VBMS -> DAS :                     Create Generic Order [XML]
DAS -> CernerOrders1 :            Create Generic Order [ORM]
CernerOrders1 o->o DAS :          Generic Order Created (Status) [ORR]
DAS o->o VBMS :                   Generic Order Created (Status) [XML]
Triage -> CernerOrders1 :         Retrieve Ready Orders\nfrom Message Center (Internal)
CernerOrders1 -> Triage :         Get Generic Order (Internal)
Triage -> CernerOrders2 :         Create Child Order(s) (Internal)
CernerOrders2 o->o DAS :          Child Order(s) Created (Status) [ORR]
CernerOrders2 -> CernerOrders2 :  CCL Group Orders (Internal)
Triage -> CernerOrders3 :         Create Order Appiontment(s) (Internal)
CernerOrders3 o->o DAS :          Appointment Created (Status) [SIU]
DAS o->o VBMS :                   Appointment Created (Status) [XML]
Clinician -> CernerOrders3 :      Retrieve Appointments (Internal)
CernerOrders3 -> Clinician :      Retrieved Orders (Internal)
Veteran -> Clinician : Veteran Presents
Clinician -> Veteran : Perform Exam
Clinician -> DBQ :                Complete DBQ
Clinician -> CernerOrders3:       Close Appointment
CernerOrders3 o->o DAS :          Close Order (Status) [ORM / ORR]
DAS o->o VBMS :                   Close Order (Status) [XML]
DBQ o->o DAS :                    Send DBQ [ORM / ORR]
DAS o->o VBMS :                   Update eFolder
@enduml

PlantUML version 1.2019.00(Sun Jan 13 10:46:42 EST 2019)
(EPL source distribution)
Java Runtime: Java(TM) SE Runtime Environment
JVM: Java HotSpot(TM) 64-Bit Server VM
Java Version: 1.8.0_112-b15
Operating System: Windows 10
OS Version: 10.0
Default Encoding: Cp1252
Language: en
Country: US
--></g></svg>