<?xml version="1.0" encoding="UTF-8" standalone="no"?><svg xmlns="http://www.w3.org/2000/svg" xmlns:xlink="http://www.w3.org/1999/xlink" contentScriptType="application/ecmascript" contentStyleType="text/css" height="1070px" preserveAspectRatio="none" style="width:1545px;height:1070px;" version="1.1" viewBox="0 0 1545 1070" width="1545px" zoomAndPan="magnify"><defs><filter height="300%" id="f1m3qafcq5d908" width="300%" x="-1" y="-1"><feGaussianBlur result="blurOut" stdDeviation="2.0"/><feColorMatrix in="blurOut" result="blurOut2" type="matrix" values="0 0 0 0 0 0 0 0 0 0 0 0 0 0 0 0 0 0 .4 0"/><feOffset dx="4.0" dy="4.0" in="blurOut2" result="blurOut3"/><feBlend in="SourceGraphic" in2="blurOut3" mode="normal"/></filter></defs><g><line style="stroke: #A80036; stroke-width: 1.0; stroke-dasharray: 5.0,5.0;" x1="149" x2="149" y1="110.0469" y2="958.5391"/><line style="stroke: #A80036; stroke-width: 1.0; stroke-dasharray: 5.0,5.0;" x1="251" x2="251" y1="110.0469" y2="958.5391"/><line style="stroke: #A80036; stroke-width: 1.0; stroke-dasharray: 5.0,5.0;" x1="360.5" x2="360.5" y1="110.0469" y2="958.5391"/><line style="stroke: #A80036; stroke-width: 1.0; stroke-dasharray: 5.0,5.0;" x1="630" x2="630" y1="110.0469" y2="958.5391"/><line style="stroke: #A80036; stroke-width: 1.0; stroke-dasharray: 5.0,5.0;" x1="802" x2="802" y1="110.0469" y2="958.5391"/><line style="stroke: #A80036; stroke-width: 1.0; stroke-dasharray: 5.0,5.0;" x1="974" x2="974" y1="110.0469" y2="958.5391"/><line style="stroke: #A80036; stroke-width: 1.0; stroke-dasharray: 5.0,5.0;" x1="1120" x2="1120" y1="110.0469" y2="958.5391"/><line style="stroke: #A80036; stroke-width: 1.0; stroke-dasharray: 5.0,5.0;" x1="1248" x2="1248" y1="110.0469" y2="958.5391"/><line style="stroke: #A80036; stroke-width: 1.0; stroke-dasharray: 5.0,5.0;" x1="1393" x2="1393" y1="110.0469" y2="958.5391"/><line style="stroke: #A80036; stroke-width: 1.0; stroke-dasharray: 5.0,5.0;" x1="1509" x2="1509" y1="110.0469" y2="958.5391"/><rect fill="#FEFECE" filter="url(#f1m3qafcq5d908)" height="31.6094" style="stroke: #A80036; stroke-width: 1.5;" width="64" x="115" y="73.4375"/><text fill="#000000" font-family="sans-serif" font-size="14" lengthAdjust="spacingAndGlyphs" textLength="50" x="122" y="94.9707">Veteran</text><rect fill="#FEFECE" filter="url(#f1m3qafcq5d908)" height="31.6094" style="stroke: #A80036; stroke-width: 1.5;" width="64" x="115" y="957.5391"/><text fill="#000000" font-family="sans-serif" font-size="14" lengthAdjust="spacingAndGlyphs" textLength="50" x="122" y="979.0723">Veteran</text><text fill="#000000" font-family="sans-serif" font-size="14" lengthAdjust="spacingAndGlyphs" textLength="28" x="234" y="106.9707">VSR</text><ellipse cx="251" cy="35.4375" fill="#FEFECE" filter="url(#f1m3qafcq5d908)" rx="8" ry="8" style="stroke: #A80036; stroke-width: 2.0;"/><path d="M251,43.4375 L251,70.4375 M238,51.4375 L264,51.4375 M251,70.4375 L238,85.4375 M251,70.4375 L264,85.4375 " fill="none" filter="url(#f1m3qafcq5d908)" style="stroke: #A80036; stroke-width: 2.0;"/><text fill="#000000" font-family="sans-serif" font-size="14" lengthAdjust="spacingAndGlyphs" textLength="28" x="234" y="972.0723">VSR</text><ellipse cx="251" cy="985.1484" fill="#FEFECE" filter="url(#f1m3qafcq5d908)" rx="8" ry="8" style="stroke: #A80036; stroke-width: 2.0;"/><path d="M251,993.1484 L251,1020.1484 M238,1001.1484 L264,1001.1484 M251,1020.1484 L238,1035.1484 M251,1020.1484 L264,1035.1484 " fill="none" filter="url(#f1m3qafcq5d908)" style="stroke: #A80036; stroke-width: 2.0;"/><rect fill="#FEFECE" filter="url(#f1m3qafcq5d908)" height="84.4375" style="stroke: #A80036; stroke-width: 1.5;" width="105" x="306.5" y="20.6094"/><text fill="#000000" font-family="sans-serif" font-size="14" lengthAdjust="spacingAndGlyphs" textLength="46" x="336" y="42.1426">[VBMS]</text><text fill="#000000" font-family="sans-serif" font-size="14" lengthAdjust="spacingAndGlyphs" textLength="27" x="345.5" y="59.752">VBA</text><text fill="#000000" font-family="sans-serif" font-size="14" lengthAdjust="spacingAndGlyphs" textLength="91" x="313.5" y="77.3613">Compensation</text><text fill="#000000" font-family="sans-serif" font-size="14" lengthAdjust="spacingAndGlyphs" textLength="35" x="341.5" y="94.9707">Claim</text><rect fill="#FEFECE" filter="url(#f1m3qafcq5d908)" height="84.4375" style="stroke: #A80036; stroke-width: 1.5;" width="105" x="306.5" y="957.5391"/><text fill="#000000" font-family="sans-serif" font-size="14" lengthAdjust="spacingAndGlyphs" textLength="46" x="336" y="979.0723">[VBMS]</text><text fill="#000000" font-family="sans-serif" font-size="14" lengthAdjust="spacingAndGlyphs" textLength="27" x="345.5" y="996.6816">VBA</text><text fill="#000000" font-family="sans-serif" font-size="14" lengthAdjust="spacingAndGlyphs" textLength="91" x="313.5" y="1014.291">Compensation</text><text fill="#000000" font-family="sans-serif" font-size="14" lengthAdjust="spacingAndGlyphs" textLength="35" x="341.5" y="1031.9004">Claim</text><rect fill="#FEFECE" filter="url(#f1m3qafcq5d908)" height="102.0469" style="stroke: #A80036; stroke-width: 1.5;" width="114" x="571" y="3"/><text fill="#000000" font-family="sans-serif" font-size="14" lengthAdjust="spacingAndGlyphs" textLength="100" x="578" y="24.5332">[Cerner Orders]</text><text fill="#000000" font-family="sans-serif" font-size="14" lengthAdjust="spacingAndGlyphs" textLength="27" x="614.5" y="42.1426">VBA</text><text fill="#000000" font-family="sans-serif" font-size="14" lengthAdjust="spacingAndGlyphs" textLength="50" x="603" y="59.752">Generic</text><text fill="#000000" font-family="sans-serif" font-size="14" lengthAdjust="spacingAndGlyphs" textLength="69" x="593.5" y="77.3613">Encounter/</text><text fill="#000000" font-family="sans-serif" font-size="14" lengthAdjust="spacingAndGlyphs" textLength="37" x="609.5" y="94.9707">Order</text><rect fill="#FEFECE" filter="url(#f1m3qafcq5d908)" height="102.0469" style="stroke: #A80036; stroke-width: 1.5;" width="114" x="571" y="957.5391"/><text fill="#000000" font-family="sans-serif" font-size="14" lengthAdjust="spacingAndGlyphs" textLength="100" x="578" y="979.0723">[Cerner Orders]</text><text fill="#000000" font-family="sans-serif" font-size="14" lengthAdjust="spacingAndGlyphs" textLength="27" x="614.5" y="996.6816">VBA</text><text fill="#000000" font-family="sans-serif" font-size="14" lengthAdjust="spacingAndGlyphs" textLength="50" x="603" y="1014.291">Generic</text><text fill="#000000" font-family="sans-serif" font-size="14" lengthAdjust="spacingAndGlyphs" textLength="69" x="593.5" y="1031.9004">Encounter/</text><text fill="#000000" font-family="sans-serif" font-size="14" lengthAdjust="spacingAndGlyphs" textLength="37" x="609.5" y="1049.5098">Order</text><rect fill="#FEFECE" filter="url(#f1m3qafcq5d908)" height="49.2188" style="stroke: #A80036; stroke-width: 1.5;" width="114" x="743" y="55.8281"/><text fill="#000000" font-family="sans-serif" font-size="14" lengthAdjust="spacingAndGlyphs" textLength="100" x="750" y="77.3613">[Cerner Orders]</text><text fill="#000000" font-family="sans-serif" font-size="14" lengthAdjust="spacingAndGlyphs" textLength="89" x="755.5" y="94.9707">Message Pool</text><rect fill="#FEFECE" filter="url(#f1m3qafcq5d908)" height="49.2188" style="stroke: #A80036; stroke-width: 1.5;" width="114" x="743" y="957.5391"/><text fill="#000000" font-family="sans-serif" font-size="14" lengthAdjust="spacingAndGlyphs" textLength="100" x="750" y="979.0723">[Cerner Orders]</text><text fill="#000000" font-family="sans-serif" font-size="14" lengthAdjust="spacingAndGlyphs" textLength="89" x="755.5" y="996.6816">Message Pool</text><text fill="#000000" font-family="sans-serif" font-size="14" lengthAdjust="spacingAndGlyphs" textLength="72" x="935" y="89.3613">VHA Triage</text><text fill="#000000" font-family="sans-serif" font-size="14" lengthAdjust="spacingAndGlyphs" textLength="70" x="936" y="106.9707">Scheduling</text><ellipse cx="974" cy="17.8281" fill="#FEFECE" filter="url(#f1m3qafcq5d908)" rx="8" ry="8" style="stroke: #A80036; stroke-width: 2.0;"/><path d="M974,25.8281 L974,52.8281 M961,33.8281 L987,33.8281 M974,52.8281 L961,67.8281 M974,52.8281 L987,67.8281 " fill="none" filter="url(#f1m3qafcq5d908)" style="stroke: #A80036; stroke-width: 2.0;"/><text fill="#000000" font-family="sans-serif" font-size="14" lengthAdjust="spacingAndGlyphs" textLength="72" x="935" y="972.0723">VHA Triage</text><text fill="#000000" font-family="sans-serif" font-size="14" lengthAdjust="spacingAndGlyphs" textLength="70" x="936" y="989.6816">Scheduling</text><ellipse cx="974" cy="1002.7578" fill="#FEFECE" filter="url(#f1m3qafcq5d908)" rx="8" ry="8" style="stroke: #A80036; stroke-width: 2.0;"/><path d="M974,1010.7578 L974,1037.7578 M961,1018.7578 L987,1018.7578 M974,1037.7578 L961,1052.7578 M974,1037.7578 L987,1052.7578 " fill="none" filter="url(#f1m3qafcq5d908)" style="stroke: #A80036; stroke-width: 2.0;"/><rect fill="#FEFECE" filter="url(#f1m3qafcq5d908)" height="84.4375" style="stroke: #A80036; stroke-width: 1.5;" width="114" x="1061" y="20.6094"/><text fill="#000000" font-family="sans-serif" font-size="14" lengthAdjust="spacingAndGlyphs" textLength="100" x="1068" y="42.1426">[Cerner Orders]</text><text fill="#000000" font-family="sans-serif" font-size="14" lengthAdjust="spacingAndGlyphs" textLength="27" x="1104.5" y="59.752">VHA</text><text fill="#000000" font-family="sans-serif" font-size="14" lengthAdjust="spacingAndGlyphs" textLength="32" x="1102" y="77.3613">Child</text><text fill="#000000" font-family="sans-serif" font-size="14" lengthAdjust="spacingAndGlyphs" textLength="37" x="1099.5" y="94.9707">Order</text><rect fill="#FEFECE" filter="url(#f1m3qafcq5d908)" height="84.4375" style="stroke: #A80036; stroke-width: 1.5;" width="114" x="1061" y="957.5391"/><text fill="#000000" font-family="sans-serif" font-size="14" lengthAdjust="spacingAndGlyphs" textLength="100" x="1068" y="979.0723">[Cerner Orders]</text><text fill="#000000" font-family="sans-serif" font-size="14" lengthAdjust="spacingAndGlyphs" textLength="27" x="1104.5" y="996.6816">VHA</text><text fill="#000000" font-family="sans-serif" font-size="14" lengthAdjust="spacingAndGlyphs" textLength="32" x="1102" y="1014.291">Child</text><text fill="#000000" font-family="sans-serif" font-size="14" lengthAdjust="spacingAndGlyphs" textLength="37" x="1099.5" y="1031.9004">Order</text><rect fill="#FEFECE" filter="url(#f1m3qafcq5d908)" height="66.8281" style="stroke: #A80036; stroke-width: 1.5;" width="114" x="1189" y="38.2188"/><text fill="#000000" font-family="sans-serif" font-size="14" lengthAdjust="spacingAndGlyphs" textLength="100" x="1196" y="59.752">[Cerner Orders]</text><text fill="#000000" font-family="sans-serif" font-size="14" lengthAdjust="spacingAndGlyphs" textLength="27" x="1232.5" y="77.3613">VHA</text><text fill="#000000" font-family="sans-serif" font-size="14" lengthAdjust="spacingAndGlyphs" textLength="79" x="1206.5" y="94.9707">Appointment</text><rect fill="#FEFECE" filter="url(#f1m3qafcq5d908)" height="66.8281" style="stroke: #A80036; stroke-width: 1.5;" width="114" x="1189" y="957.5391"/><text fill="#000000" font-family="sans-serif" font-size="14" lengthAdjust="spacingAndGlyphs" textLength="100" x="1196" y="979.0723">[Cerner Orders]</text><text fill="#000000" font-family="sans-serif" font-size="14" lengthAdjust="spacingAndGlyphs" textLength="27" x="1232.5" y="996.6816">VHA</text><text fill="#000000" font-family="sans-serif" font-size="14" lengthAdjust="spacingAndGlyphs" textLength="79" x="1206.5" y="1014.291">Appointment</text><rect fill="#FEFECE" filter="url(#f1m3qafcq5d908)" height="49.2188" style="stroke: #A80036; stroke-width: 1.5;" width="149" x="1317" y="55.8281"/><text fill="#000000" font-family="sans-serif" font-size="14" lengthAdjust="spacingAndGlyphs" textLength="135" x="1324" y="77.3613">[Cerner PowerForms]</text><text fill="#000000" font-family="sans-serif" font-size="14" lengthAdjust="spacingAndGlyphs" textLength="30" x="1376.5" y="94.9707">DBQ</text><rect fill="#FEFECE" filter="url(#f1m3qafcq5d908)" height="49.2188" style="stroke: #A80036; stroke-width: 1.5;" width="149" x="1317" y="957.5391"/><text fill="#000000" font-family="sans-serif" font-size="14" lengthAdjust="spacingAndGlyphs" textLength="135" x="1324" y="979.0723">[Cerner PowerForms]</text><text fill="#000000" font-family="sans-serif" font-size="14" lengthAdjust="spacingAndGlyphs" textLength="30" x="1376.5" y="996.6816">DBQ</text><text fill="#000000" font-family="sans-serif" font-size="14" lengthAdjust="spacingAndGlyphs" textLength="53" x="1480" y="106.9707">Clinician</text><ellipse cx="1509.5" cy="35.4375" fill="#FEFECE" filter="url(#f1m3qafcq5d908)" rx="8" ry="8" style="stroke: #A80036; stroke-width: 2.0;"/><path d="M1509.5,43.4375 L1509.5,70.4375 M1496.5,51.4375 L1522.5,51.4375 M1509.5,70.4375 L1496.5,85.4375 M1509.5,70.4375 L1522.5,85.4375 " fill="none" filter="url(#f1m3qafcq5d908)" style="stroke: #A80036; stroke-width: 2.0;"/><text fill="#000000" font-family="sans-serif" font-size="14" lengthAdjust="spacingAndGlyphs" textLength="53" x="1480" y="972.0723">Clinician</text><ellipse cx="1509.5" cy="985.1484" fill="#FEFECE" filter="url(#f1m3qafcq5d908)" rx="8" ry="8" style="stroke: #A80036; stroke-width: 2.0;"/><path d="M1509.5,993.1484 L1509.5,1020.1484 M1496.5,1001.1484 L1522.5,1001.1484 M1509.5,1020.1484 L1496.5,1035.1484 M1509.5,1020.1484 L1522.5,1035.1484 " fill="none" filter="url(#f1m3qafcq5d908)" style="stroke: #A80036; stroke-width: 2.0;"/><path d="M8,125.0469 L8,151.0469 L140,151.0469 L140,135.0469 L130,125.0469 L8,125.0469 " fill="#FBFB77" filter="url(#f1m3qafcq5d908)" style="stroke: #A80036; stroke-width: 1.0;"/><path d="M130,125.0469 L130,135.0469 L140,135.0469 L130,125.0469 " fill="#FBFB77" style="stroke: #A80036; stroke-width: 1.0;"/><text fill="#000000" font-family="sans-serif" font-size="13" lengthAdjust="spacingAndGlyphs" textLength="111" x="14" y="143.542">Version 20190916b</text><polygon fill="#A80036" points="239,195.1016,249,199.1016,239,203.1016,243,199.1016" style="stroke: #A80036; stroke-width: 1.0;"/><line style="stroke: #A80036; stroke-width: 1.0;" x1="149" x2="245" y1="199.1016" y2="199.1016"/><text fill="#000000" font-family="sans-serif" font-size="13" lengthAdjust="spacingAndGlyphs" textLength="78" x="156" y="177.8936">Submit Claim</text><text fill="#000000" font-family="sans-serif" font-size="13" lengthAdjust="spacingAndGlyphs" textLength="69" x="156" y="194.2451">Contentions</text><polygon fill="#A80036" points="349,225.4531,359,229.4531,349,233.4531,353,229.4531" style="stroke: #A80036; stroke-width: 1.0;"/><line style="stroke: #A80036; stroke-width: 1.0;" x1="251" x2="355" y1="229.4531" y2="229.4531"/><text fill="#000000" font-family="sans-serif" font-size="13" lengthAdjust="spacingAndGlyphs" textLength="34" x="258" y="224.5967">CEST</text><polygon fill="#A80036" points="262,255.8047,252,259.8047,262,263.8047,258,259.8047" style="stroke: #A80036; stroke-width: 1.0;"/><line style="stroke: #A80036; stroke-width: 1.0;" x1="256" x2="360" y1="259.8047" y2="259.8047"/><text fill="#000000" font-family="sans-serif" font-size="13" lengthAdjust="spacingAndGlyphs" textLength="86" x="268" y="254.9482">Return Claim #</text><polygon fill="#A80036" points="618,286.1563,628,290.1563,618,294.1563,622,290.1563" style="stroke: #A80036; stroke-width: 1.0;"/><line style="stroke: #A80036; stroke-width: 1.0;" x1="251" x2="624" y1="290.1563" y2="290.1563"/><text fill="#000000" font-family="sans-serif" font-size="13" lengthAdjust="spacingAndGlyphs" textLength="188" x="258" y="285.2998">Create Generic Order w/ Claim #</text><ellipse cx="360.5" cy="319.7578" fill="none" rx="4" ry="4" style="stroke: #A80036; stroke-width: 1.5;"/><polygon fill="#A80036" points="377.5,316.5078,367.5,320.5078,377.5,324.5078,373.5,320.5078" style="stroke: #A80036; stroke-width: 1.0;"/><ellipse cx="629.5" cy="319.7578" fill="none" rx="4" ry="4" style="stroke: #A80036; stroke-width: 1.5;"/><line style="stroke: #A80036; stroke-width: 1.0;" x1="375.5" x2="625" y1="320.5078" y2="320.5078"/><text fill="#000000" font-family="sans-serif" font-size="13" lengthAdjust="spacingAndGlyphs" textLength="245" x="378" y="315.6514">Generic Order Created (Status) w/ Claim #</text><polygon fill="#A80036" points="790,346.8594,800,350.8594,790,354.8594,794,350.8594" style="stroke: #A80036; stroke-width: 1.0;"/><line style="stroke: #A80036; stroke-width: 1.0;" x1="630" x2="796" y1="350.8594" y2="350.8594"/><text fill="#000000" font-family="sans-serif" font-size="13" lengthAdjust="spacingAndGlyphs" textLength="148" x="637" y="346.0029">Create Message w/ Order</text><polygon fill="#A80036" points="962,377.2109,972,381.2109,962,385.2109,966,381.2109" style="stroke: #A80036; stroke-width: 1.0;"/><line style="stroke: #A80036; stroke-width: 1.0;" x1="802" x2="968" y1="381.2109" y2="381.2109"/><text fill="#000000" font-family="sans-serif" font-size="13" lengthAdjust="spacingAndGlyphs" textLength="148" x="809" y="376.3545">Order Message from Pool</text><polygon fill="#A80036" points="813,407.5625,803,411.5625,813,415.5625,809,411.5625" style="stroke: #A80036; stroke-width: 1.0;"/><line style="stroke: #A80036; stroke-width: 1.0;" x1="807" x2="973" y1="411.5625" y2="411.5625"/><text fill="#000000" font-family="sans-serif" font-size="13" lengthAdjust="spacingAndGlyphs" textLength="146" x="819" y="406.7061">Retrieve Orders Message</text><polygon fill="#A80036" points="641,437.9141,631,441.9141,641,445.9141,637,441.9141" style="stroke: #A80036; stroke-width: 1.0;"/><line style="stroke: #A80036; stroke-width: 1.0;" x1="635" x2="801" y1="441.9141" y2="441.9141"/><text fill="#000000" font-family="sans-serif" font-size="13" lengthAdjust="spacingAndGlyphs" textLength="120" x="647" y="437.0576">Query Generic Order</text><polygon fill="#A80036" points="962,468.2656,972,472.2656,962,476.2656,966,472.2656" style="stroke: #A80036; stroke-width: 1.0;"/><line style="stroke: #A80036; stroke-width: 1.0;" x1="630" x2="968" y1="472.2656" y2="472.2656"/><text fill="#000000" font-family="sans-serif" font-size="13" lengthAdjust="spacingAndGlyphs" textLength="106" x="637" y="467.4092">Get Generic Order</text><polygon fill="#A80036" points="1108,498.6172,1118,502.6172,1108,506.6172,1112,502.6172" style="stroke: #A80036; stroke-width: 1.0;"/><line style="stroke: #A80036; stroke-width: 1.0;" x1="974" x2="1114" y1="502.6172" y2="502.6172"/><text fill="#000000" font-family="sans-serif" font-size="13" lengthAdjust="spacingAndGlyphs" textLength="122" x="981" y="497.7607">Create Child Order(s)</text><ellipse cx="360.5" cy="532.2188" fill="none" rx="4" ry="4" style="stroke: #A80036; stroke-width: 1.5;"/><polygon fill="#A80036" points="377.5,528.9688,367.5,532.9688,377.5,536.9688,373.5,532.9688" style="stroke: #A80036; stroke-width: 1.0;"/><ellipse cx="1119.5" cy="532.2188" fill="none" rx="4" ry="4" style="stroke: #A80036; stroke-width: 1.5;"/><line style="stroke: #A80036; stroke-width: 1.0;" x1="375.5" x2="1115" y1="532.9688" y2="532.9688"/><text fill="#000000" font-family="sans-serif" font-size="13" lengthAdjust="spacingAndGlyphs" textLength="229" x="378" y="528.1123">Child Order Created (Status) w/ Claim #</text><line style="stroke: #A80036; stroke-width: 1.0;" x1="1120" x2="1162" y1="563.3203" y2="563.3203"/><line style="stroke: #A80036; stroke-width: 1.0;" x1="1162" x2="1162" y1="563.3203" y2="576.3203"/><line style="stroke: #A80036; stroke-width: 1.0;" x1="1121" x2="1162" y1="576.3203" y2="576.3203"/><polygon fill="#A80036" points="1131,572.3203,1121,576.3203,1131,580.3203,1127,576.3203" style="stroke: #A80036; stroke-width: 1.0;"/><text fill="#000000" font-family="sans-serif" font-size="13" lengthAdjust="spacingAndGlyphs" textLength="107" x="1127" y="558.4639">CCL Group Orders</text><polygon fill="#A80036" points="1236,602.6719,1246,606.6719,1236,610.6719,1240,606.6719" style="stroke: #A80036; stroke-width: 1.0;"/><line style="stroke: #A80036; stroke-width: 1.0;" x1="974" x2="1242" y1="606.6719" y2="606.6719"/><text fill="#000000" font-family="sans-serif" font-size="13" lengthAdjust="spacingAndGlyphs" textLength="166" x="981" y="601.8154">Create Order Appointment(s)</text><ellipse cx="360.5" cy="636.2734" fill="none" rx="4" ry="4" style="stroke: #A80036; stroke-width: 1.5;"/><polygon fill="#A80036" points="377.5,633.0234,367.5,637.0234,377.5,641.0234,373.5,637.0234" style="stroke: #A80036; stroke-width: 1.0;"/><ellipse cx="1247.5" cy="636.2734" fill="none" rx="4" ry="4" style="stroke: #A80036; stroke-width: 1.5;"/><line style="stroke: #A80036; stroke-width: 1.0;" x1="375.5" x2="1243" y1="637.0234" y2="637.0234"/><text fill="#000000" font-family="sans-serif" font-size="13" lengthAdjust="spacingAndGlyphs" textLength="237" x="378" y="632.167">Appointment Created (Status) w/ Claim #</text><polygon fill="#A80036" points="1259,663.375,1249,667.375,1259,671.375,1255,667.375" style="stroke: #A80036; stroke-width: 1.0;"/><line style="stroke: #A80036; stroke-width: 1.0;" x1="1253" x2="1508.5" y1="667.375" y2="667.375"/><text fill="#000000" font-family="sans-serif" font-size="13" lengthAdjust="spacingAndGlyphs" textLength="130" x="1265" y="662.5186">Retrieve Appointments</text><polygon fill="#A80036" points="1497.5,693.7266,1507.5,697.7266,1497.5,701.7266,1501.5,697.7266" style="stroke: #A80036; stroke-width: 1.0;"/><line style="stroke: #A80036; stroke-width: 1.0;" x1="1248" x2="1503.5" y1="697.7266" y2="697.7266"/><text fill="#000000" font-family="sans-serif" font-size="13" lengthAdjust="spacingAndGlyphs" textLength="98" x="1255" y="692.8701">Get Appointment</text><polygon fill="#A80036" points="1497.5,724.0781,1507.5,728.0781,1497.5,732.0781,1501.5,728.0781" style="stroke: #A80036; stroke-width: 1.0;"/><line style="stroke: #A80036; stroke-width: 1.0;" x1="149" x2="1503.5" y1="728.0781" y2="728.0781"/><text fill="#000000" font-family="sans-serif" font-size="13" lengthAdjust="spacingAndGlyphs" textLength="101" x="156" y="723.2217">Veteran Presents</text><polygon fill="#A80036" points="160,754.4297,150,758.4297,160,762.4297,156,758.4297" style="stroke: #A80036; stroke-width: 1.0;"/><line style="stroke: #A80036; stroke-width: 1.0;" x1="154" x2="1508.5" y1="758.4297" y2="758.4297"/><text fill="#000000" font-family="sans-serif" font-size="13" lengthAdjust="spacingAndGlyphs" textLength="83" x="166" y="753.5732">Perform Exam</text><polygon fill="#A80036" points="1404.5,784.7813,1394.5,788.7813,1404.5,792.7813,1400.5,788.7813" style="stroke: #A80036; stroke-width: 1.0;"/><line style="stroke: #A80036; stroke-width: 1.0;" x1="1398.5" x2="1508.5" y1="788.7813" y2="788.7813"/><text fill="#000000" font-family="sans-serif" font-size="13" lengthAdjust="spacingAndGlyphs" textLength="87" x="1410.5" y="783.9248">Complete DBQ</text><polygon fill="#A80036" points="1259,815.1328,1249,819.1328,1259,823.1328,1255,819.1328" style="stroke: #A80036; stroke-width: 1.0;"/><line style="stroke: #A80036; stroke-width: 1.0;" x1="1253" x2="1508.5" y1="819.1328" y2="819.1328"/><text fill="#000000" font-family="sans-serif" font-size="13" lengthAdjust="spacingAndGlyphs" textLength="110" x="1265" y="814.2764">Close Appointment</text><polygon fill="#A80036" points="1131,845.4844,1121,849.4844,1131,853.4844,1127,849.4844" style="stroke: #A80036; stroke-width: 1.0;"/><line style="stroke: #A80036; stroke-width: 1.0;" x1="1125" x2="1508.5" y1="849.4844" y2="849.4844"/><text fill="#000000" font-family="sans-serif" font-size="13" lengthAdjust="spacingAndGlyphs" textLength="69" x="1137" y="844.6279">Close Order</text><ellipse cx="360.5" cy="879.0859" fill="none" rx="4" ry="4" style="stroke: #A80036; stroke-width: 1.5;"/><polygon fill="#A80036" points="377.5,875.8359,367.5,879.8359,377.5,883.8359,373.5,879.8359" style="stroke: #A80036; stroke-width: 1.0;"/><ellipse cx="1119.5" cy="879.0859" fill="none" rx="4" ry="4" style="stroke: #A80036; stroke-width: 1.5;"/><line style="stroke: #A80036; stroke-width: 1.0;" x1="375.5" x2="1115" y1="879.8359" y2="879.8359"/><text fill="#000000" font-family="sans-serif" font-size="13" lengthAdjust="spacingAndGlyphs" textLength="184" x="378" y="874.9795">Close Order (Status) w/ Claim #</text><ellipse cx="360.5" cy="909.4375" fill="none" rx="4" ry="4" style="stroke: #A80036; stroke-width: 1.5;"/><polygon fill="#A80036" points="377.5,906.1875,367.5,910.1875,377.5,914.1875,373.5,910.1875" style="stroke: #A80036; stroke-width: 1.0;"/><ellipse cx="1393" cy="909.4375" fill="none" rx="4" ry="4" style="stroke: #A80036; stroke-width: 1.5;"/><line style="stroke: #A80036; stroke-width: 1.0;" x1="375.5" x2="1388.5" y1="910.1875" y2="910.1875"/><text fill="#000000" font-family="sans-serif" font-size="13" lengthAdjust="spacingAndGlyphs" textLength="233" x="378" y="905.3311">Update Appointment (Status) w/ Claim #</text><ellipse cx="360.5" cy="939.7891" fill="none" rx="4" ry="4" style="stroke: #A80036; stroke-width: 1.5;"/><polygon fill="#A80036" points="377.5,936.5391,367.5,940.5391,377.5,944.5391,373.5,940.5391" style="stroke: #A80036; stroke-width: 1.0;"/><ellipse cx="1393" cy="939.7891" fill="none" rx="4" ry="4" style="stroke: #A80036; stroke-width: 1.5;"/><line style="stroke: #A80036; stroke-width: 1.0;" x1="375.5" x2="1388.5" y1="940.5391" y2="940.5391"/><text fill="#000000" font-family="sans-serif" font-size="13" lengthAdjust="spacingAndGlyphs" textLength="212" x="378" y="935.6826">Update eFolder with DBQ w/ Claim #</text><!--
@startuml
note left of Veteran
Version 20190916b
end note
actor Veteran
actor VSR
participant "[VBMS]\nVBA\nCompensation\nClaim" as Claim
participant "[Cerner Orders]\nVBA\nGeneric\nEncounter/\nOrder" as VBAGenericEncounter
participant "[Cerner Orders]\nMessage Pool" as MessagePool
actor "VHA Triage\nScheduling" as Triage
participant "[Cerner Orders]\nVHA\nChild\nOrder" as VHAChildOrder
participant "[Cerner Orders]\nVHA\nAppointment" as VHAAppointment
participant "[Cerner PowerForms]\nDBQ" as DBQ
actor Clinician
Veteran -> VSR : Submit Claim\nContentions
VSR -> Claim : CEST
Claim -> VSR : Return Claim #
VSR -> VBAGenericEncounter : Create Generic Order w/ Claim #
VBAGenericEncounter o->o Claim : Generic Order Created (Status) w/ Claim #
VBAGenericEncounter -> MessagePool : Create Message w/ Order
MessagePool -> Triage : Order Message from Pool
Triage -> MessagePool : Retrieve Orders Message
MessagePool -> VBAGenericEncounter : Query Generic Order
VBAGenericEncounter -> Triage : Get Generic Order
Triage -> VHAChildOrder : Create Child Order(s)
VHAChildOrder o->o Claim : Child Order Created (Status) w/ Claim #
VHAChildOrder -> VHAChildOrder : CCL Group Orders
Triage -> VHAAppointment : Create Order Appointment(s)
VHAAppointment o->o Claim : Appointment Created (Status) w/ Claim #
Clinician -> VHAAppointment : Retrieve Appointments
VHAAppointment -> Clinician : Get Appointment
Veteran -> Clinician : Veteran Presents
Clinician -> Veteran : Perform Exam
Clinician -> DBQ : Complete DBQ
Clinician -> VHAAppointment : Close Appointment
Clinician -> VHAChildOrder : Close Order
VHAChildOrder o->o Claim : Close Order (Status) w/ Claim #
DBQ o->o Claim : Update Appointment (Status) w/ Claim #
DBQ o->o Claim : Update eFolder with DBQ w/ Claim #
@enduml

PlantUML version 1.2019.00(Sun Jan 13 10:46:42 EST 2019)
(EPL source distribution)
Java Runtime: Java(TM) SE Runtime Environment
JVM: Java HotSpot(TM) 64-Bit Server VM
Java Version: 1.8.0_112-b15
Operating System: Windows 10
OS Version: 10.0
Default Encoding: Cp1252
Language: en
Country: US
--></g></svg>